<svg width="100" height="100" viewBox="0 0 100 100" fill="none" xmlns="http://www.w3.org/2000/svg">
<g clip-path="url(#clip0)">
<path d="M50.1953 68.8197C35.5553 68.8197 23.6447 56.982 23.6447 42.4314C23.6447 35.6982 27.7215 26.9145 35.7619 16.3236C41.5148 8.7459 47.1875 3.02324 47.4262 2.78359L50.1875 0.0078125L52.9568 2.77578C53.1957 3.01445 58.8711 8.70801 64.6264 16.2723C72.6684 26.8424 76.7461 35.6437 76.7461 42.4316C76.7459 56.982 64.8354 68.8197 50.1953 68.8197ZM50.2137 11.2119C48.085 13.5426 44.9932 17.0783 41.9322 21.1164C35.1773 30.0273 31.4572 37.5971 31.4572 42.4314C31.4572 52.6742 39.8631 61.0072 50.1953 61.0072C60.5275 61.0072 68.9334 52.6742 68.9334 42.4314C68.9334 33.4332 57.208 18.8119 50.2137 11.2119ZM74.5967 78.2178C70.3408 77.0984 65.4143 76.2887 60.1898 75.8277C56.9834 76.3039 53.5469 76.5547 50.0002 76.5547C46.4535 76.5547 43.017 76.3039 39.8105 75.8277C34.5859 76.2887 29.6596 77.0982 25.4037 78.2178C24.6162 78.4248 23.8807 78.6352 23.191 78.8461C24.159 79.3672 25.2348 79.8748 26.433 80.3617C32.791 82.9447 41.1607 84.3672 50 84.3672C58.8393 84.3672 67.209 82.9447 73.5672 80.3615C74.7654 79.8748 75.8414 79.3672 76.8092 78.8459C76.1197 78.635 75.3842 78.4248 74.5967 78.2178ZM83.8893 64.7271C81.9572 64.0477 79.8926 63.4336 77.7188 62.8867C75.8637 65.3531 73.6811 67.5615 71.2375 69.4508C74.8961 70.1508 78.283 71.0369 81.2971 72.0969C88.8201 74.743 92.1875 77.91 92.1875 79.875C92.1875 81.84 88.8201 85.007 81.2971 87.6529C72.9969 90.5721 61.882 92.1797 50 92.1797C38.118 92.1797 27.0031 90.5721 18.7029 87.6529C11.1799 85.007 7.8125 81.84 7.8125 79.875C7.8125 77.91 11.1799 74.743 18.7029 72.0971C21.8029 71.0068 25.2959 70.0998 29.0744 69.3908C26.6355 67.4939 24.4598 65.2772 22.6111 62.8043C20.3158 63.3717 18.1404 64.0135 16.1107 64.7273C2.79512 69.4102 0 75.5494 0 79.875C0 84.2006 2.79512 90.3398 16.1107 95.0229C25.2225 98.2273 37.258 99.9922 50 99.9922C62.742 99.9922 74.7775 98.2273 83.8893 95.0229C97.2049 90.3398 100 84.2004 100 79.875C100 75.5496 97.2049 69.4102 83.8893 64.7271Z" fill="url(#paint0_linear)"/>
</g>
<defs>
<linearGradient id="paint0_linear" x1="0" y1="0.0078125" x2="99.9844" y2="100.008" gradientUnits="userSpaceOnUse">
<stop stop-color="#FAD297"/>
<stop offset="1" stop-color="#E2B37C"/>
</linearGradient>
<clipPath id="clip0">
<rect width="100" height="100" fill="white"/>
</clipPath>
</defs>
</svg>
