<svg width="100" height="100" viewBox="0 0 100 100" fill="none" xmlns="http://www.w3.org/2000/svg">
<g clip-path="url(#clip0)">
<path d="M75.9888 82.0045C75.9888 84.1606 74.2409 85.9093 72.084 85.9093C69.928 85.9093 68.1801 84.1606 68.1801 82.0045C68.1801 79.8485 69.928 78.1006 72.084 78.1006C74.2409 78.1006 75.9888 79.8485 75.9888 82.0045ZM90.4343 60.1402H100V52.3315H90.4343V60.1402ZM90.4343 38.6665V46.4752H100V38.6665H90.4343ZM90.4343 73.8052H100V65.9973H90.4343V73.8052ZM84.5779 69.3649C87.9059 72.7585 89.8491 77.359 89.8491 82.0045C89.8491 91.9075 81.7917 99.9641 71.8887 99.9641C61.9858 99.9641 53.9291 91.9075 53.9291 82.0045C53.9291 77.3666 55.8662 72.7722 59.1858 69.3794L59.2003 45.4971C59.2003 38.5025 64.8926 32.8102 71.8887 32.8102C78.8857 32.8102 84.5779 38.5025 84.5779 45.4994V69.3649ZM82.0404 82.0045C82.0404 79.0367 80.6 76.075 78.1876 74.0829L76.7693 72.9118V45.4994C76.7693 42.8085 74.5796 40.6189 71.8887 40.6189C69.1978 40.6189 67.0082 42.8085 67.0082 45.4994L66.9922 72.9218L65.5792 74.0921C63.1737 76.0849 61.7378 79.0421 61.7378 82.0045C61.7378 87.6022 66.2918 92.1562 71.8887 92.1562C77.4864 92.1562 82.0404 87.6022 82.0404 82.0045ZM45.9251 92.1562H21.5233C19.3703 92.1562 17.6193 90.4045 17.6193 88.2515V40.1329L50.0244 10.5698L65.844 25.0015H77.4307L50.0244 0L0 45.6367L5.26276 51.4053L9.81064 47.2565V88.2515C9.81064 94.7105 15.065 99.9649 21.5233 99.9649H53.4294C51.2436 97.718 49.4621 95.076 48.2056 92.1562H45.9251Z" fill="url(#paint0_linear)"/>
</g>
<defs>
<linearGradient id="paint0_linear" x1="0" y1="0" x2="99.9649" y2="100" gradientUnits="userSpaceOnUse">
<stop stop-color="#FAD297"/>
<stop offset="1" stop-color="#E2B37C"/>
</linearGradient>
<clipPath id="clip0">
<rect width="100" height="100" fill="white"/>
</clipPath>
</defs>
</svg>
