<svg width="100" height="100" viewBox="0 0 100 100" fill="none" xmlns="http://www.w3.org/2000/svg">
<path d="M49.9997 100L48.4111 99.2932C48.0031 99.1117 38.3046 94.75 28.5103 86.3857C22.6855 81.4113 18.0269 76.0389 14.665 70.4176C10.3673 63.2322 8.1886 55.6398 8.1886 47.8514V24.2754C8.1886 18.5928 12.2609 13.7383 17.8714 12.733C27.3445 11.0354 36.0683 5.86191 40.4253 2.9293C43.2718 1.01289 46.5825 0 49.9997 0C53.4169 0 56.7277 1.01289 59.5743 2.92891C63.9314 5.86152 72.6552 11.035 82.1284 12.7326C87.739 13.7381 91.8113 18.5924 91.8113 24.275V47.8512C91.8113 55.6396 89.6322 63.2318 85.3349 70.4174C81.9728 76.0387 77.3146 81.4111 71.4896 86.3856C61.6952 94.7498 51.9968 99.1115 51.5888 99.293L49.9997 100ZM49.9997 7.81523C48.1433 7.81523 46.3413 8.36758 44.7892 9.4123C39.9222 12.6883 30.1323 18.4752 19.2499 20.4254C17.3691 20.7625 16.0036 22.3814 16.0036 24.2752V47.8514C16.0036 72.5252 43.0857 87.8668 49.9999 91.3799C53.0079 89.8527 59.8357 86.09 66.5607 80.3168C78.1296 70.3852 83.9956 59.4623 83.9956 47.8512V24.2754C83.9956 22.3818 82.6304 20.7627 80.7493 20.4256C69.8669 18.4754 60.0769 12.6881 55.2101 9.4125C53.6579 8.36758 51.8562 7.81523 49.9997 7.81523ZM74.9939 34.4346L69.1611 29.233L43.948 57.5061L30.5923 45.0025L25.2511 50.7076L44.4517 68.6834L74.9939 34.4346Z" fill="url(#paint0_linear)"/>
<defs>
<linearGradient id="paint0_linear" x1="8.1886" y1="0" x2="106.61" y2="82.3027" gradientUnits="userSpaceOnUse">
<stop stop-color="#FAD297"/>
<stop offset="1" stop-color="#E2B37C"/>
</linearGradient>
</defs>
</svg>
