<svg width="100" height="100" viewBox="0 0 100 100" fill="none" xmlns="http://www.w3.org/2000/svg">
<g clip-path="url(#clip0)">
<path d="M62.5207 33.7446C62.5268 33.8063 62.5383 33.8661 62.5471 33.9268C62.5576 34.0004 62.5662 34.0743 62.5807 34.1475C62.5945 34.2174 62.6137 34.2852 62.6311 34.3538C62.6469 34.4168 62.6607 34.4803 62.6797 34.5428C62.7 34.6102 62.7254 34.6752 62.749 34.7411C62.7715 34.8034 62.792 34.8663 62.8174 34.9278C62.843 34.9893 62.8729 35.0485 62.9014 35.1084C62.9311 35.1715 62.9592 35.2354 62.9924 35.2973C63.0232 35.3547 63.0582 35.4094 63.0916 35.4653C63.1279 35.526 63.1623 35.5875 63.202 35.6469C63.2432 35.7086 63.2893 35.7667 63.3336 35.826C63.3707 35.8754 63.4049 35.9262 63.4445 35.9743C63.6187 36.1866 63.8135 36.3815 64.026 36.5557C64.074 36.5952 64.1248 36.6295 64.1742 36.6665C64.2336 36.711 64.2916 36.7569 64.3535 36.7983C64.4127 36.8379 64.4742 36.8723 64.535 36.9086C64.5908 36.942 64.6455 36.9772 64.7031 37.0081C64.765 37.0413 64.8289 37.0694 64.8922 37.0991C64.9521 37.1274 65.0111 37.1573 65.0727 37.1829C65.1342 37.2083 65.1971 37.229 65.2596 37.2512C65.3254 37.2749 65.3902 37.3 65.4574 37.3204C65.5199 37.3393 65.5836 37.3532 65.6467 37.369C65.7152 37.3864 65.783 37.4055 65.8527 37.4194C65.926 37.4338 65.9998 37.4426 66.0734 37.4532C66.1342 37.4618 66.1939 37.4735 66.2555 37.4795C66.3922 37.493 66.5295 37.5002 66.6666 37.5002H87.5C89.8012 37.5002 91.6666 35.6348 91.6666 33.3336C91.6666 31.0325 89.8012 29.167 87.5 29.167H76.726L98.7797 7.11294C100.407 5.48579 100.407 2.84751 98.7797 1.22036C97.1525 -0.406787 94.5143 -0.406787 92.8871 1.22036L70.8334 23.2741V12.5C70.8334 10.1989 68.968 8.33345 66.6668 8.33345C64.3654 8.33345 62.5 10.1989 62.5 12.5V33.3334V33.3336C62.5 33.4707 62.5072 33.6079 62.5207 33.7446Z" fill="url(#paint0_linear)"/>
<path d="M33.3332 8.33296C31.032 8.33296 29.1666 10.1984 29.1666 12.4996V23.2736L7.1127 1.21987C5.48555 -0.407275 2.84727 -0.407275 1.22012 1.21987C-0.407031 2.84702 -0.407031 5.4853 1.22012 7.11245L23.2738 29.1662H12.4998C10.1986 29.1662 8.3332 31.0316 8.3332 33.3328C8.3332 35.6341 10.1986 37.4996 12.4998 37.4996H33.3332C33.4705 37.4996 33.6076 37.4923 33.7443 37.4789C33.8061 37.4728 33.8658 37.4613 33.9266 37.4525C34.0002 37.4419 34.074 37.4334 34.1473 37.4189C34.2172 37.405 34.285 37.3859 34.3535 37.3685C34.4166 37.3527 34.4801 37.3388 34.5426 37.3199C34.61 37.2996 34.675 37.2742 34.7408 37.2505C34.8031 37.2281 34.866 37.2076 34.9275 37.1822C34.9891 37.1566 35.0482 37.1267 35.1082 37.0982C35.1713 37.0685 35.2352 37.0404 35.2971 37.0072C35.3547 36.9763 35.4094 36.9412 35.4654 36.9078C35.5262 36.8716 35.5875 36.8373 35.6467 36.7976C35.7086 36.7562 35.7668 36.7101 35.8264 36.6656C35.8756 36.6287 35.9262 36.5945 35.9742 36.555C36.1865 36.3808 36.3812 36.1861 36.5557 35.9736C36.5951 35.9255 36.6293 35.875 36.6662 35.8257C36.7107 35.7662 36.7568 35.708 36.7982 35.646C36.8379 35.5869 36.8721 35.5255 36.9084 35.4648C36.9418 35.4089 36.977 35.3541 37.0078 35.2964C37.041 35.2345 37.0689 35.1709 37.0988 35.1076C37.1271 35.0476 37.1572 34.9884 37.1828 34.9269C37.2082 34.8654 37.2287 34.8027 37.2512 34.7402C37.2748 34.6744 37.3 34.6093 37.3205 34.5419C37.3395 34.4794 37.3533 34.416 37.3691 34.3529C37.3865 34.2843 37.4057 34.2166 37.4195 34.1466C37.434 34.0734 37.4426 33.9996 37.4531 33.9259C37.4617 33.8652 37.4734 33.8052 37.4795 33.7437C37.493 33.607 37.5002 33.4699 37.5002 33.3328V33.3326V12.4996C37.4998 10.1984 35.6344 8.33296 33.3332 8.33296Z" fill="url(#paint1_linear)"/>
<path d="M37.4793 66.2554C37.4733 66.1937 37.4618 66.1339 37.453 66.0731C37.4424 65.9995 37.4338 65.9257 37.4194 65.8524C37.4055 65.7825 37.3864 65.7147 37.369 65.6462C37.3532 65.5831 37.3393 65.5196 37.3204 65.4571C37.3001 65.3897 37.2747 65.3247 37.251 65.2589C37.2286 65.1966 37.2081 65.1337 37.1827 65.0722C37.1571 65.0106 37.1272 64.9515 37.0987 64.8915C37.069 64.8284 37.0409 64.7646 37.0077 64.7026C36.9768 64.645 36.9417 64.5903 36.9083 64.5343C36.8721 64.4735 36.8377 64.4122 36.7981 64.353C36.7567 64.2911 36.7106 64.2329 36.6661 64.1733C36.6292 64.1241 36.595 64.0735 36.5555 64.0255C36.3813 63.8132 36.1866 63.6185 35.9741 63.444C35.926 63.4046 35.8754 63.3704 35.8262 63.3335C35.7667 63.289 35.7084 63.2429 35.6465 63.2015C35.5874 63.1618 35.526 63.1276 35.4653 63.0913C35.4094 63.0579 35.3545 63.0228 35.2969 62.9919C35.235 62.9587 35.1713 62.9308 35.1081 62.9009C35.0481 62.8726 34.9889 62.8425 34.9274 62.8169C34.8659 62.7915 34.8032 62.771 34.7407 62.7485C34.6749 62.7249 34.6098 62.6997 34.5424 62.6792C34.4799 62.6603 34.4165 62.6464 34.3534 62.6306C34.2848 62.6132 34.217 62.594 34.1471 62.5802C34.0739 62.5657 34 62.5571 33.9264 62.5466C33.8657 62.538 33.8057 62.5263 33.7442 62.5202C33.6075 62.5067 33.4702 62.4995 33.3331 62.4995H12.5001C10.1989 62.4995 8.33345 64.3649 8.33345 66.6661C8.33345 68.9673 10.1989 70.8327 12.5001 70.8327H23.2741L1.22036 92.887C-0.406787 94.5141 -0.406787 97.1524 1.22036 98.7796C2.84751 100.407 5.48579 100.407 7.11294 98.7796L29.1667 76.7259V87.4999C29.1667 89.8011 31.0321 91.6665 33.3333 91.6665C35.6344 91.6665 37.4999 89.8011 37.4999 87.4999V66.6665V66.6663C37.5 66.5292 37.4928 66.3921 37.4793 66.2554Z" fill="url(#paint2_linear)"/>
<path d="M76.726 70.8332H87.5C89.8012 70.8332 91.6666 68.9678 91.6666 66.6666C91.6666 64.3654 89.8012 62.5 87.5 62.5H66.6666C66.5293 62.5 66.3922 62.5072 66.2555 62.5207C66.1939 62.5268 66.1342 62.5383 66.0734 62.5471C65.9996 62.5576 65.9258 62.5662 65.8527 62.5809C65.7828 62.5947 65.7152 62.6139 65.6467 62.6312C65.5834 62.6471 65.5199 62.6609 65.4574 62.6799C65.3902 62.7002 65.3252 62.7254 65.2596 62.749C65.1971 62.7715 65.1342 62.792 65.0727 62.8174C65.0111 62.843 64.9521 62.8728 64.8922 62.9012C64.8289 62.9311 64.7652 62.959 64.7031 62.9922C64.6455 63.023 64.5908 63.0582 64.535 63.0916C64.4742 63.1279 64.4127 63.1623 64.3535 63.202C64.2918 63.2434 64.2336 63.2893 64.1742 63.3338C64.1248 63.3709 64.0742 63.4051 64.026 63.4445C63.8137 63.6187 63.6187 63.8135 63.4445 64.026C63.4051 64.074 63.3707 64.1248 63.3336 64.1742C63.2893 64.2336 63.2432 64.2916 63.202 64.3533C63.1623 64.4127 63.1279 64.4742 63.0916 64.535C63.0582 64.5908 63.023 64.6455 62.9924 64.7029C62.9592 64.7648 62.9312 64.8285 62.9014 64.8918C62.873 64.9518 62.843 65.0109 62.8174 65.0725C62.792 65.134 62.7715 65.1967 62.749 65.2592C62.7254 65.325 62.7002 65.39 62.6797 65.4574C62.6607 65.5199 62.6469 65.5834 62.6311 65.6465C62.6137 65.715 62.5945 65.7828 62.5807 65.8527C62.5662 65.9258 62.5576 65.9998 62.5471 66.0734C62.5385 66.1342 62.5268 66.1941 62.5207 66.2557C62.5072 66.3924 62.5 66.5295 62.5 66.6666V66.6668V87.4998C62.5 89.801 64.3654 91.6664 66.6666 91.6664C68.9678 91.6664 70.8332 89.801 70.8332 87.4998V76.7258L92.8869 98.7795C94.5141 100.407 97.1523 100.407 98.7795 98.7795C100.407 97.1523 100.407 94.514 98.7795 92.8869L76.726 70.8332Z" fill="url(#paint3_linear)"/>
</g>
<defs>
<linearGradient id="paint0_linear" x1="62.5" y1="0" x2="100" y2="37.5" gradientUnits="userSpaceOnUse">
<stop stop-color="#FAD297"/>
<stop offset="1" stop-color="#E2B37C"/>
</linearGradient>
<linearGradient id="paint1_linear" x1="-0.000244141" y1="-0.000488281" x2="37.4998" y2="37.5" gradientUnits="userSpaceOnUse">
<stop stop-color="#FAD297"/>
<stop offset="1" stop-color="#E2B37C"/>
</linearGradient>
<linearGradient id="paint2_linear" x1="0" y1="62.4995" x2="37.5004" y2="99.9994" gradientUnits="userSpaceOnUse">
<stop stop-color="#FAD297"/>
<stop offset="1" stop-color="#E2B37C"/>
</linearGradient>
<linearGradient id="paint3_linear" x1="62.5" y1="62.5" x2="99.9998" y2="99.9998" gradientUnits="userSpaceOnUse">
<stop stop-color="#FAD297"/>
<stop offset="1" stop-color="#E2B37C"/>
</linearGradient>
<clipPath id="clip0">
<rect width="100" height="100" fill="white"/>
</clipPath>
</defs>
</svg>
