<svg width="100" height="100" viewBox="0 0 100 100" fill="none" xmlns="http://www.w3.org/2000/svg">
<g clip-path="url(#clip0)">
<path d="M86.5067 72.9584L80.9875 78.4782L85.2531 82.7438H66.6298L92.1387 57.235V67.5507L99.9443 75.3563V10.9154C99.9443 4.89655 95.0478 0 89.0297 0H24.3927L32.1991 7.80563H42.9054L17.2012 33.5106V14.8872L21.4668 19.1528L26.9859 13.633L13.4933 0.139618L0 13.633L5.51987 19.1528L9.39484 15.2771V79.6349C9.39484 85.6537 14.2914 90.5502 20.3102 90.5502H84.8625L80.9875 94.4252L86.5067 99.9451L100 86.4517L86.5067 72.9584ZM55.5901 82.7438H44.6747L92.1387 35.2806V46.1952L55.5901 82.7438ZM17.2012 66.2117L75.6065 7.8064H86.6188L17.2012 77.224V66.2117ZM92.1387 13.3263V24.2409L33.6357 82.7438H22.7203L92.1387 13.3263ZM53.9444 7.8064H64.5668L17.2012 55.172V44.5496L53.9444 7.8064Z" fill="url(#paint0_linear)"/>
</g>
<defs>
<linearGradient id="paint0_linear" x1="0" y1="0" x2="99.9451" y2="100" gradientUnits="userSpaceOnUse">
<stop stop-color="#FAD297"/>
<stop offset="1" stop-color="#E2B37C"/>
</linearGradient>
<clipPath id="clip0">
<rect width="100" height="100" fill="white"/>
</clipPath>
</defs>
</svg>
