<svg width="336" height="440" viewBox="0 0 336 440" fill="none" xmlns="http://www.w3.org/2000/svg">
<g clip-path="url(#clip0)" filter="url(#filter0_d)">
<path fill-rule="evenodd" clip-rule="evenodd" d="M40.6113 115.413V97.1617L41.2717 96.5469H43.0238V116.028H41.2476L40.6113 115.413ZM292.817 145.115H294.469L296.121 145.96V203.941L294.469 204.748H292.817V145.115ZM40.3735 133.434V169.706L42.0258 170.513H42.8326V132.589H41.9873L40.3735 133.434ZM40.3735 216.659V180.388L41.9873 179.542H42.8326V217.466H42.0258L40.3735 216.659Z" fill="#C0C0C0"/>
<mask id="mask0" mask-type="alpha" maskUnits="userSpaceOnUse" x="40" y="96" width="257" height="122">
<path fill-rule="evenodd" clip-rule="evenodd" d="M40.6113 115.413V97.1617L41.2717 96.5469H43.0238V116.028H41.2476L40.6113 115.413ZM292.817 145.115H294.469L296.121 145.96V203.941L294.469 204.748H292.817V145.115ZM40.3735 133.434V169.706L42.0258 170.513H42.8326V132.589H41.9873L40.3735 133.434ZM40.3735 216.659V180.388L41.9873 179.542H42.8326V217.466H42.0258L40.3735 216.659Z" fill="white"/>
</mask>
<g mask="url(#mask0)">
<g opacity="0.3" filter="url(#filter1_f)">
<path fill-rule="evenodd" clip-rule="evenodd" d="M39.3362 135.086L42.8327 133.05V128.746L39.3362 130.783V135.086ZM39.3362 172.357L42.8327 174.393V170.09L39.3362 168.053V172.357ZM39.3362 182.001L42.8327 179.965V175.661L39.3362 177.698V182.001ZM39.3362 219.31L42.8327 221.347V217.043L39.3362 215.007V219.31ZM293.432 140.926V145.229L296.929 147.266V142.962L293.432 140.926ZM293.432 208.744L296.929 206.708V202.404L293.432 204.441V208.744ZM39.9509 97.5842H43.4475V93.2808H39.9509V97.5842ZM39.9509 119.486H43.4475V115.183H39.9509V119.486Z" fill="black"/>
</g>
<path opacity="0.9" fill-rule="evenodd" clip-rule="evenodd" d="M41.7951 99.0941V113.263C41.7951 116.687 40.5588 116.49 40.3321 116.453C40.3092 116.45 40.2966 116.448 40.2966 116.451V95.7407C40.2966 95.7407 41.7951 95.8281 41.7951 99.0941ZM38.7597 130.668H39.5666C40.9114 130.668 42.0257 133.434 42.0257 134.779V168.554C42.0257 169.898 40.9114 172.665 39.5666 172.665H38.7597V130.668ZM39.5666 177.468H38.6829V219.35H39.5666C40.9114 219.35 42.0257 216.583 42.0257 215.239V181.541C42.0257 180.196 40.9114 177.468 39.5666 177.468ZM294.469 147.152C294.469 145.807 295.583 143.04 296.928 143.04H297.966V207.054H296.928C295.583 207.054 294.469 204.288 294.469 202.943V147.152Z" fill="#EFEFEF"/>
<mask id="mask1" mask-type="alpha" maskUnits="userSpaceOnUse" x="38" y="95" width="260" height="125">
<path fill-rule="evenodd" clip-rule="evenodd" d="M41.7951 99.0941V113.263C41.7951 116.687 40.5588 116.49 40.3321 116.453C40.3092 116.45 40.2966 116.448 40.2966 116.451V95.7407C40.2966 95.7407 41.7951 95.8281 41.7951 99.0941ZM38.7597 130.668H39.5666C40.9114 130.668 42.0257 133.434 42.0257 134.779V168.554C42.0257 169.898 40.9114 172.665 39.5666 172.665H38.7597V130.668ZM39.5666 177.468H38.6829V219.35H39.5666C40.9114 219.35 42.0257 216.583 42.0257 215.239V181.541C42.0257 180.196 40.9114 177.468 39.5666 177.468ZM294.469 147.152C294.469 145.807 295.583 143.04 296.928 143.04H297.966V207.054H296.928C295.583 207.054 294.469 204.288 294.469 202.943V147.152Z" fill="white"/>
</mask>
<g mask="url(#mask1)">
<g opacity="0.7" filter="url(#filter2_f)">
<path fill-rule="evenodd" clip-rule="evenodd" d="M39.3362 97.2782L42.8328 95.5107V91.6299L39.3362 93.3974V97.2782ZM39.3362 118.987L42.8327 120.754V116.874L39.3362 115.106V118.987ZM39.3362 133.857L42.8327 131.821V127.517L39.3362 129.554V133.857ZM39.3362 173.395L41.949 174.932L39.3362 176.469V180.773L42.8327 178.736V171.167L39.3362 169.13V173.395ZM39.3362 220.311L42.8327 222.347V218.044L39.3362 216.007V220.311ZM293.24 140.927V145.231L296.736 147.267V142.964L293.24 140.927ZM293.24 208.937L296.736 206.901V202.597L293.24 204.634V208.937Z" fill="black"/>
</g>
<g opacity="0.2" filter="url(#filter3_f)">
<path fill-rule="evenodd" clip-rule="evenodd" d="M39.3362 135.087L42.8327 133.05V128.747L39.3362 130.783V135.087ZM39.3362 172.358L42.8327 174.394V170.091L39.3362 168.054V172.358ZM39.3362 182.002L42.8327 179.966V175.662L39.3362 177.699V182.002ZM39.3362 219.311L42.8327 221.348V217.044L39.3362 215.008V219.311ZM293.432 140.927V145.231L296.928 147.267V142.964L293.432 140.927ZM293.432 208.745L296.928 206.709V202.405L293.432 204.442V208.745ZM39.3362 98.0464L42.8328 96.01V91.7065L39.3362 93.743V98.0464ZM39.3362 118.757L42.8327 121.139V116.835L39.3362 114.453V118.757Z" fill="black"/>
</g>
<g filter="url(#filter4_f)">
<path fill-rule="evenodd" clip-rule="evenodd" d="M39.3362 134.856L42.8327 132.819V128.516L39.3362 130.552V134.856ZM39.3362 172.665L42.8327 174.701V170.398L39.3362 168.361V172.665ZM39.3362 181.694L42.8327 179.658V175.355L39.3362 177.391V181.694ZM39.3362 219.619L42.8327 221.655V217.352L39.3362 215.315V219.619ZM293.432 141.119V145.153L296.928 147.19V143.155L293.432 141.119ZM293.432 208.745L296.928 206.708V202.405L293.432 204.441V208.745ZM39.3362 118.68L42.8327 120.947V116.643L39.3362 114.376V118.68ZM39.3362 97.9693L42.8328 96.3171V92.0137L39.3362 93.6659V97.9693Z" fill="white"/>
</g>
</g>
<path fill-rule="evenodd" clip-rule="evenodd" d="M40.9499 98.4095V113.791C40.9499 115.472 40.4417 115.564 40.4801 115.526L39.4129 115.375V97.1238L40.39 96.8726C40.39 96.8726 40.9499 97.3288 40.9499 98.4095ZM37.6455 131.398L38.655 131.538C40.4561 132.15 40.9965 135.062 40.9965 136.809V166.33C40.9965 167.584 40.8824 170.46 39.0092 170.85L37.6455 171.973V131.398ZM38.3932 178.381H37.3557V218.724H38.3932C39.738 218.724 40.8523 216.034 40.8523 214.689V182.377C40.8523 181.071 39.7764 178.381 38.3932 178.381ZM295.46 149.483C295.46 148.036 295.52 145.238 297.685 143.693H298.978V206.016L297.264 204.891C295.772 204.825 295.46 202.85 295.46 201.022V149.483Z" fill="#D0D0D0"/>
<mask id="mask2" mask-type="alpha" maskUnits="userSpaceOnUse" x="37" y="96" width="262" height="123">
<path fill-rule="evenodd" clip-rule="evenodd" d="M40.9499 98.4095V113.791C40.9499 115.472 40.4417 115.564 40.4801 115.526L39.4129 115.375V97.1238L40.39 96.8726C40.39 96.8726 40.9499 97.3288 40.9499 98.4095ZM37.6455 131.398L38.655 131.538C40.4561 132.15 40.9965 135.062 40.9965 136.809V166.33C40.9965 167.584 40.8824 170.46 39.0092 170.85L37.6455 171.973V131.398ZM38.3932 178.381H37.3557V218.724H38.3932C39.738 218.724 40.8523 216.034 40.8523 214.689V182.377C40.8523 181.071 39.7764 178.381 38.3932 178.381ZM295.46 149.483C295.46 148.036 295.52 145.238 297.685 143.693H298.978V206.016L297.264 204.891C295.772 204.825 295.46 202.85 295.46 201.022V149.483Z" fill="white"/>
</mask>
<g mask="url(#mask2)">
<g opacity="0.4" filter="url(#filter5_f)">
<rect x="37.1074" y="96.3936" width="2.81545" height="20.7488" fill="black"/>
</g>
<g opacity="0.4" filter="url(#filter6_f)">
<rect x="35.9548" y="130.162" width="3.96816" height="90.6757" fill="black"/>
</g>
<g opacity="0.4" filter="url(#filter7_f)">
<rect x="297.211" y="130.162" width="3.96816" height="90.6757" fill="black"/>
</g>
</g>
<path opacity="0.5" fill-rule="evenodd" clip-rule="evenodd" d="M40.12 179.856C40.12 179.856 40.8494 181.182 40.8494 182.671L40.8884 213.355C40.8884 214.7 40.7347 217.467 39.3899 217.467H39.4667C41.0421 217.428 41.119 214.7 41.119 213.355L41.08 182.701C41.0376 181.345 40.7924 180.78 40.3544 179.886C40.2873 179.749 40.12 179.856 40.12 179.856ZM39.9509 132.808C40.7655 133.583 40.9884 135.844 40.9884 137.035V166.209C40.9884 167.554 40.8347 170.321 39.4898 170.321H39.5667C41.142 170.282 41.2189 167.554 41.2189 166.209V137.035C41.183 135.887 40.9302 133.563 40.1551 132.808C40.0955 132.75 39.9785 132.705 39.9509 132.808ZM295.649 200.637V149.303C295.649 148.112 295.88 145.768 296.61 145.115C295.649 145.653 295.457 148.112 295.457 149.303V200.637C295.457 201.982 295.496 204.71 297.033 204.748H297.109C295.803 204.748 295.649 202.02 295.649 200.637ZM297.033 144.923C296.879 144.923 296.764 145 296.648 145.115C296.764 145.038 296.879 145 297.033 145V144.923ZM40.5657 115.514C40.6194 115.508 40.5895 115.749 40.6363 115.712C41.1646 115.292 41.1886 113.917 41.1886 113.917V98.5535C41.1886 98.5535 41.1646 97.4909 40.7143 96.8785C40.624 96.7557 40.5721 97.0424 40.4742 96.9145C40.9244 97.5149 40.9581 98.5535 40.9581 98.5535V113.917C40.9581 113.917 40.9424 115.028 40.5657 115.514Z" fill="white"/>
<g style="mix-blend-mode:soft-light" opacity="0.6">
<rect x="-139.257" y="-24.2568" width="614.779" height="614.779" fill="#E4E4E4"/>
</g>
</g>
<path fill-rule="evenodd" clip-rule="evenodd" d="M254.931 539.38H182.31C181.465 538.842 177.7 538.765 176.931 538.765H159.602C158.795 538.765 155.03 538.842 154.223 539.38H81.602C57.2029 539.38 41.6414 524.202 41.6414 497.152V218.465C42.1409 217.043 42.4483 215.891 42.4483 215.161V181.578C42.4483 180.848 42.1409 179.734 41.6414 178.812V171.704C42.1409 170.282 42.4483 169.129 42.4483 168.399V134.817C42.4483 134.087 42.1409 132.972 41.6414 132.05V116.642C42.1409 115.374 42.2561 114.337 42.2561 113.645V98.737C42.2561 98.0454 42.1409 97.0079 41.6414 96.201V70.6493C41.6414 42.9842 56.396 27 85.4828 27H251.05C280.137 27 294.892 42.9842 294.892 70.6493V143.616C294.392 145.46 294.085 146.613 294.085 147.343V202.635C294.085 203.365 294.392 204.479 294.892 205.401V497.152C294.892 524.241 279.292 539.38 254.931 539.38Z" fill="#D0D0D0"/>
<mask id="mask3" mask-type="alpha" maskUnits="userSpaceOnUse" x="41" y="27" width="254" height="513">
<path fill-rule="evenodd" clip-rule="evenodd" d="M254.931 539.38H182.31C181.465 538.842 177.7 538.765 176.931 538.765H159.602C158.795 538.765 155.03 538.842 154.223 539.38H81.602C57.2029 539.38 41.6414 524.202 41.6414 497.152V218.465C42.1409 217.043 42.4483 215.891 42.4483 215.161V181.578C42.4483 180.848 42.1409 179.734 41.6414 178.812V171.704C42.1409 170.282 42.4483 169.129 42.4483 168.399V134.817C42.4483 134.087 42.1409 132.972 41.6414 132.05V116.642C42.1409 115.374 42.2561 114.337 42.2561 113.645V98.737C42.2561 98.0454 42.1409 97.0079 41.6414 96.201V70.6493C41.6414 42.9842 56.396 27 85.4828 27H251.05C280.137 27 294.892 42.9842 294.892 70.6493V143.616C294.392 145.46 294.085 146.613 294.085 147.343V202.635C294.085 203.365 294.392 204.479 294.892 205.401V497.152C294.892 524.241 279.292 539.38 254.931 539.38Z" fill="white"/>
</mask>
<g mask="url(#mask3)">
<g style="mix-blend-mode:hard-light" opacity="0.4">
<rect x="-139.257" y="-24.2568" width="614.779" height="614.779" fill="#E4E4E4"/>
</g>
<g opacity="0.49983" filter="url(#filter8_f)">
<path d="M261.041 24.9253H76.2227C55.7429 24.9253 39.1055 41.5243 39.1055 62.0426V500.149C39.1055 517.901 51.5932 533.77 68.269 537.651C52.9764 533.386 41.8335 519.976 41.8335 501.686V69.0357C41.8335 41.6012 58.471 25.4632 78.9892 25.4632H257.39C277.909 25.4632 294.546 41.2169 294.546 67.614V501.725C294.546 521.59 282.519 534.692 266.343 538.189C284.325 535.422 298.119 518.862 298.119 500.149V62.0426C298.158 41.5243 281.559 24.9253 261.041 24.9253Z" fill="black"/>
</g>
<g filter="url(#filter9_f)">
<path fill-rule="evenodd" clip-rule="evenodd" d="M288.744 68.6901C288.744 46.9808 276.448 33.2251 252.28 33.2251H84.2148C60.0463 33.2251 47.7507 46.9423 47.7507 68.6901L47.7507 500.226C47.7507 527.277 64.7724 536.69 83.8306 536.69H252.664C271.722 536.69 288.744 527.277 288.744 500.226V68.6901Z" fill="#EDEDED"/>
</g>
<g opacity="0.7" filter="url(#filter10_f)">
<path fill-rule="evenodd" clip-rule="evenodd" d="M288.744 68.6901C288.744 46.9808 276.448 33.2251 252.28 33.2251H84.2148C60.0463 33.2251 47.7507 46.9423 47.7507 68.6901V496.768C47.7507 523.818 64.7724 533.232 83.8306 533.232H252.664C271.722 533.232 288.744 523.818 288.744 496.768V68.6901Z" fill="white"/>
</g>
<g filter="url(#filter11_f)">
<path fill-rule="evenodd" clip-rule="evenodd" d="M271.914 531.043C280.291 525.241 285.67 515.827 285.67 503.915V67.2689C285.67 49.2098 278.254 38.4127 267.265 33.3408C281.367 38.5664 291.395 52.1684 291.395 68.1911V497.268C291.395 511.446 283.518 524.395 271.914 531.043ZM50.2097 68.7675V503.915C50.2097 513.291 53.5141 521.052 58.9703 526.778C50.7092 519.592 45.0994 508.834 45.0994 497.268V68.1911C45.0994 53.6286 53.8215 41.0256 65.925 34.9547C56.4343 40.7182 50.2097 51.5537 50.2097 68.7675Z" fill="white"/>
</g>
<g filter="url(#filter12_f)">
<path fill-rule="evenodd" clip-rule="evenodd" d="M271.914 531.043C280.291 525.241 285.67 515.827 285.67 503.915V67.2689C285.67 49.2098 278.254 38.4127 267.265 33.3408C281.367 38.5664 291.395 52.1684 291.395 68.1911V497.268C291.395 511.446 283.518 524.395 271.914 531.043ZM50.2097 68.7675V503.915C50.2097 513.291 53.5141 521.052 58.9703 526.778C50.7092 519.592 45.0994 508.834 45.0994 497.268V68.1911C45.0994 53.6286 53.8215 41.0256 65.925 34.9547C56.4343 40.7182 50.2097 51.5537 50.2097 68.7675Z" fill="white"/>
</g>
<g filter="url(#filter13_f)">
<path fill-rule="evenodd" clip-rule="evenodd" d="M254.124 37.4128H82.3703C62.5052 37.4128 50.4786 44.4444 46.521 59.3527C48.2885 40.2946 60.6225 28.4985 83.2156 28.4985H253.279C275.872 28.4985 288.206 40.2946 289.973 59.3527C286.016 44.4828 273.989 37.4128 254.124 37.4128Z" fill="white"/>
</g>
<g opacity="0.9" filter="url(#filter14_f)">
<path fill-rule="evenodd" clip-rule="evenodd" d="M265.613 538.65C282.705 534.902 294.277 521.165 294.277 496.91V70.1677C294.277 37.6036 272.331 27.346 252.203 27.346H83.7664C61.913 27.346 42.0638 38.9002 42.0638 70.5999V495.181C42.0638 521.79 55.7171 535.382 69.8057 538.304C37.8501 546.813 37.1072 518.4 37.1072 500.072V62.0426C37.1072 41.5627 55.7811 24.9253 76.2609 24.9253H261.079C281.559 24.9253 300.232 41.5243 300.232 62.0426V500.149C300.194 519.092 292.311 542.683 265.613 538.65Z" fill="white"/>
</g>
</g>
<mask id="mask4" mask-type="alpha" maskUnits="userSpaceOnUse" x="41" y="27" width="254" height="513">
<path fill-rule="evenodd" clip-rule="evenodd" d="M290.37 496.767C290.37 509.85 286.517 519.817 278.917 526.39C272.492 531.947 263.414 534.884 252.664 534.884H83.8048C73.0554 534.884 63.9774 531.947 57.5522 526.39C49.952 519.817 46.0985 509.85 46.0985 496.767V68.6768C46.0985 57.3595 49.4341 48.0137 55.7444 41.6503C62.3675 34.9715 71.9465 31.5849 84.2148 31.5849H252.255C264.522 31.5849 274.101 34.9715 280.725 41.6503C287.035 48.0137 290.37 57.3595 290.37 68.6768V496.767ZM85.4444 27.0767C56.345 27.0767 41.6448 43.0609 41.6448 70.7259V497.177C41.6448 524.228 57.1646 539.392 81.5509 539.392H254.918C279.304 539.392 294.879 524.228 294.879 497.177V70.7259C294.879 43.0609 280.124 27.0767 251.025 27.0767H85.4444Z" fill="white"/>
</mask>
<g mask="url(#mask4)">
<path fill-rule="evenodd" clip-rule="evenodd" d="M41.1804 79.7553V76.2588H295.276V79.7553H41.1804ZM295.276 490.428H41.1804V486.931H295.276V490.428Z" fill="#989899" fill-opacity="0.6"/>
<mask id="mask5" mask-type="alpha" maskUnits="userSpaceOnUse" x="41" y="76" width="255" height="415">
<path fill-rule="evenodd" clip-rule="evenodd" d="M41.1804 79.7553V76.2588H295.276V79.7553H41.1804ZM295.276 490.428H41.1804V486.931H295.276V490.428Z" fill="white"/>
</mask>
<g mask="url(#mask5)">
<g opacity="0.8" filter="url(#filter15_f)">
<path fill-rule="evenodd" clip-rule="evenodd" d="M286.285 83.175H291.741V72.7622H286.285V83.175ZM294.661 72.8009V83.2138H300.079V72.8009H294.661ZM286.285 493.847H291.741V483.435H286.285V493.847ZM294.661 493.847H300.079V483.435H294.661V493.847ZM36.6847 83.1753H42.1025V72.7625H36.6463V83.1753H36.6847ZM44.6385 83.175H50.0946V72.7622H44.6385V83.175ZM36.6847 493.847H42.1024V483.435H36.6462V493.847H36.6847ZM44.6385 493.847H50.0946V483.435H44.6385V493.847Z" fill="white"/>
</g>
<g style="mix-blend-mode:hard-light" opacity="0.15">
<rect x="-165.779" y="-39.0317" width="705.143" height="705.143" fill="#E4E4E4"/>
</g>
</g>
</g>
<path d="M181.657 45.0972H154.799C153.608 45.0972 152.647 46.0578 152.647 47.2489C152.647 48.44 153.608 49.4006 154.799 49.4006H181.657C182.848 49.4006 183.809 48.44 183.809 47.2489C183.809 46.0578 182.848 45.0972 181.657 45.0972Z" fill="#DDDDDD"/>
<mask id="mask6" mask-type="alpha" maskUnits="userSpaceOnUse" x="152" y="45" width="32" height="5">
<path d="M181.657 45.0972H154.799C153.608 45.0972 152.647 46.0578 152.647 47.2489C152.647 48.44 153.608 49.4006 154.799 49.4006H181.657C182.848 49.4006 183.809 48.44 183.809 47.2489C183.809 46.0578 182.848 45.0972 181.657 45.0972Z" fill="white"/>
</mask>
<g mask="url(#mask6)">
<path opacity="0.503748" fill-rule="evenodd" clip-rule="evenodd" d="M154.862 44.6616L150.391 49.7244L150.589 49.9484L155.06 44.8856L154.862 44.6616ZM151.459 49.7244L155.93 44.6616L156.128 44.8856L151.657 49.9484L151.459 49.7244ZM156.999 44.6616L152.528 49.7244L152.725 49.9484L157.196 44.8856L156.999 44.6616ZM153.596 49.7244L158.067 44.6616L158.265 44.8856L153.794 49.9484L153.596 49.7244ZM159.135 44.6616L154.664 49.7244L154.862 49.9484L159.333 44.8856L159.135 44.6616ZM155.772 49.7244L160.243 44.6616L160.441 44.8856L155.97 49.9484L155.772 49.7244ZM161.311 44.6616L156.84 49.7244L157.038 49.9484L161.509 44.8856L161.311 44.6616ZM157.909 49.7244L162.38 44.6616L162.578 44.8856L158.106 49.9484L157.909 49.7244ZM163.448 44.6616L158.977 49.7244L159.175 49.9484L163.646 44.8856L163.448 44.6616ZM160.085 49.7244L164.556 44.6616L164.754 44.8856L160.283 49.9484L160.085 49.7244ZM165.624 44.6616L161.153 49.7244L161.351 49.9484L165.822 44.8856L165.624 44.6616ZM162.221 49.7244L166.692 44.6616L166.89 44.8856L162.419 49.9484L162.221 49.7244ZM167.761 44.6616L163.29 49.7244L163.488 49.9484L167.959 44.8856L167.761 44.6616ZM164.358 49.7244L168.829 44.6616L169.027 44.8856L164.556 49.9484L164.358 49.7244ZM169.937 44.6616L165.466 49.7244L165.664 49.9484L170.135 44.8856L169.937 44.6616ZM166.534 49.7244L171.005 44.6616L171.203 44.8856L166.732 49.9484L166.534 49.7244ZM172.073 44.6616L167.602 49.7244L167.8 49.9484L172.271 44.8856L172.073 44.6616ZM168.671 49.7244L173.142 44.6616L173.34 44.8856L168.868 49.9484L168.671 49.7244ZM174.25 44.6616L169.779 49.7244L169.976 49.9484L174.447 44.8856L174.25 44.6616ZM170.847 49.7244L175.318 44.6616L175.516 44.8856L171.045 49.9484L170.847 49.7244ZM176.386 44.6616L171.915 49.7244L172.113 49.9484L176.584 44.8856L176.386 44.6616ZM172.984 49.7244L177.455 44.6616L177.652 44.8856L173.181 49.9484L172.984 49.7244ZM178.523 44.6616L174.052 49.7244L174.25 49.9484L178.721 44.8856L178.523 44.6616ZM175.16 49.7244L179.631 44.6616L179.828 44.8856L175.357 49.9484L175.16 49.7244ZM180.699 44.6616L176.228 49.7244L176.426 49.9484L180.897 44.8856L180.699 44.6616ZM177.296 49.7244L181.767 44.6616L181.965 44.8856L177.494 49.9484L177.296 49.7244ZM182.835 44.6616L178.364 49.7244L178.562 49.9484L183.033 44.8856L182.835 44.6616ZM179.472 49.7244L183.943 44.6616L184.141 44.8856L179.67 49.9484L179.472 49.7244ZM185.012 44.6616L180.541 49.7244L180.738 49.9484L185.209 44.8856L185.012 44.6616ZM186.08 44.6616L181.609 49.7244L181.807 49.9484L186.278 44.8856L186.08 44.6616ZM149.283 49.7248L153.754 44.662L153.952 44.886L149.481 49.9488L149.283 49.7248Z" fill="white"/>
<path opacity="0.6" fill-rule="evenodd" clip-rule="evenodd" d="M150.351 44.8408L154.823 49.9036L155.02 49.6796L150.549 44.6616L150.351 44.8408ZM155.93 49.9036L151.459 44.8408L151.618 44.6616L156.128 49.6796L155.93 49.9036ZM152.528 44.8408L156.999 49.9036L157.196 49.6796L152.725 44.6616L152.528 44.8408ZM158.067 49.9036L153.596 44.8408L153.794 44.6616L158.265 49.6796L158.067 49.9036ZM154.664 44.8408L159.135 49.9036L159.333 49.6796L154.862 44.6616L154.664 44.8408ZM160.243 49.9036L155.772 44.8408L155.93 44.6616L160.441 49.6796L160.243 49.9036ZM156.84 44.8408L161.311 49.9036L161.509 49.6796L157.038 44.6616L156.84 44.8408ZM162.38 49.9036L157.909 44.8408L158.106 44.6616L162.578 49.6796L162.38 49.9036ZM158.977 44.8408L163.448 49.9036L163.646 49.6796L159.175 44.6616L158.977 44.8408ZM164.516 49.9036L160.045 44.8408L160.243 44.6616L164.714 49.6796L164.516 49.9036ZM161.153 44.8408L165.624 49.9036L165.822 49.6796L161.311 44.6616L161.153 44.8408ZM166.692 49.9036L162.221 44.8408L162.419 44.6616L166.89 49.6796L166.692 49.9036ZM163.29 44.8408L167.761 49.9036L167.959 49.6796L163.488 44.6616L163.29 44.8408ZM168.829 49.9036L164.358 44.8408L164.556 44.6616L169.027 49.6796L168.829 49.9036ZM165.466 44.8408L169.937 49.9036L170.135 49.6796L165.624 44.6616L165.466 44.8408ZM171.005 49.9036L166.534 44.8408L166.692 44.6616L171.203 49.6796L171.005 49.9036ZM167.602 44.8408L172.073 49.9036L172.271 49.6796L167.8 44.6616L167.602 44.8408ZM173.142 49.9036L168.671 44.8408L168.868 44.6616L173.34 49.6796L173.142 49.9036ZM169.739 44.8408L174.21 49.9036L174.408 49.6796L169.937 44.6616L169.739 44.8408ZM175.318 49.9036L170.847 44.8408L171.005 44.6616L175.516 49.6796L175.318 49.9036ZM171.915 44.8408L176.386 49.9036L176.584 49.6796L172.113 44.6616L171.915 44.8408ZM177.455 49.9036L172.984 44.8408L173.181 44.6616L177.652 49.6796L177.455 49.9036ZM174.052 44.8408L178.523 49.9036L178.721 49.6796L174.25 44.6616L174.052 44.8408ZM179.591 49.9036L175.12 44.8408L175.318 44.6616L179.789 49.6796L179.591 49.9036ZM176.228 44.8408L180.699 49.9036L180.897 49.6796L176.386 44.6616L176.228 44.8408ZM181.767 49.9036L177.296 44.8408L177.494 44.6616L181.965 49.6796L181.767 49.9036ZM178.364 44.8408L182.835 49.9036L183.033 49.6796L178.562 44.6616L178.364 44.8408ZM183.904 49.9036L179.433 44.8408L179.631 44.6616L184.102 49.6796L183.904 49.9036ZM180.541 44.8408L185.012 49.9036L185.209 49.6796L180.699 44.6616L180.541 44.8408ZM181.807 44.6616L181.609 44.8856L186.08 49.9484L186.278 49.7244L181.807 44.6616ZM153.754 49.904L149.283 44.8412L149.481 44.662L153.952 49.68L153.754 49.904Z" fill="white"/>
</g>
<mask id="mask7" mask-type="alpha" maskUnits="userSpaceOnUse" x="152" y="44" width="33" height="6">
<path fill-rule="evenodd" clip-rule="evenodd" d="M154.799 44.7119H181.657C183.079 44.7119 184.232 45.8646 184.232 47.2863C184.232 48.708 183.079 49.8607 181.657 49.8607H154.799C153.378 49.8607 152.225 48.708 152.225 47.2863C152.225 45.8646 153.378 44.7119 154.799 44.7119ZM154.799 49.4007H181.657C182.848 49.4007 183.809 48.4401 183.809 47.249C183.809 46.0579 182.848 45.0973 181.657 45.0973H154.799C153.608 45.0973 152.647 46.0579 152.647 47.249C152.647 48.4401 153.608 49.4007 154.799 49.4007Z" fill="white"/>
</mask>
<g mask="url(#mask7)">
<g opacity="0.799366" filter="url(#filter16_f)">
<path fill-rule="evenodd" clip-rule="evenodd" d="M151.687 47.4795H184.501V52.1288H151.687V47.4795Z" fill="white"/>
</g>
<g filter="url(#filter17_f)">
<path d="M181.657 45.0975H154.799C153.454 45.0975 152.34 46.1349 152.263 47.4413C152.263 47.3645 152.263 47.2876 152.263 47.2492C152.263 45.8275 153.416 44.6748 154.838 44.6748H181.696C183.117 44.6748 184.27 45.8275 184.27 47.2492C184.27 47.326 184.27 47.4029 184.27 47.4413C184.116 46.1349 183.002 45.0975 181.657 45.0975Z" fill="black"/>
</g>
<g style="mix-blend-mode:soft-light" opacity="0.15">
<rect x="-178.833" y="-23.4888" width="614.779" height="614.779" fill="#E4E4E4"/>
</g>
</g>
<path fill-rule="evenodd" clip-rule="evenodd" d="M154.799 49.8239H181.657C183.041 49.8239 184.155 48.748 184.232 47.3647C184.232 47.4032 184.232 47.4416 184.232 47.48C184.232 48.9017 183.079 50.0544 181.657 50.0544H154.799C153.378 50.0544 152.225 48.9017 152.225 47.48C152.225 47.4416 152.225 47.4032 152.225 47.3647C152.302 48.748 153.416 49.8239 154.799 49.8239Z" fill="white"/>
<path opacity="0.9" fill-rule="evenodd" clip-rule="evenodd" d="M181.657 44.713H154.799C153.416 44.713 152.302 45.7888 152.225 47.1721C152.225 47.1337 152.225 47.0952 152.225 47.0568C152.225 45.6351 153.378 44.4824 154.799 44.4824H181.657C183.079 44.4824 184.232 45.6351 184.232 47.0568C184.232 47.0952 184.232 47.1337 184.232 47.1721C184.155 45.7888 183.041 44.713 181.657 44.713Z" fill="white"/>
<g opacity="0.5" filter="url(#filter18_i)">
<path d="M181.657 45.0972H154.799C153.608 45.0972 152.647 46.0578 152.647 47.2489C152.647 48.44 153.608 49.4006 154.799 49.4006H181.657C182.848 49.4006 183.809 48.44 183.809 47.2489C183.809 46.0578 182.848 45.0972 181.657 45.0972Z" fill="black" fill-opacity="0.01"/>
</g>
<mask id="mask8" mask-type="alpha" maskUnits="userSpaceOnUse" x="152" y="45" width="32" height="5">
<path d="M181.657 45.0972H154.799C153.608 45.0972 152.647 46.0578 152.647 47.2489C152.647 48.44 153.608 49.4006 154.799 49.4006H181.657C182.848 49.4006 183.809 48.44 183.809 47.2489C183.809 46.0578 182.848 45.0972 181.657 45.0972Z" fill="white"/>
</mask>
<g mask="url(#mask8)">
<g style="mix-blend-mode:soft-light" opacity="0.03">
<rect x="-178.833" y="-23.873" width="614.779" height="614.779" fill="#E4E4E4"/>
</g>
</g>
<path d="M199.371 47.5566C199.371 49.7083 197.642 51.4374 195.49 51.4374C193.338 51.4374 191.609 49.7083 191.609 47.5566C191.609 45.4048 193.338 43.6758 195.49 43.6758C197.642 43.6758 199.371 45.4048 199.371 47.5566Z" fill="#E2E2E2"/>
<mask id="mask9" mask-type="alpha" maskUnits="userSpaceOnUse" x="191" y="43" width="9" height="9">
<path d="M199.371 47.5566C199.371 49.7083 197.642 51.4374 195.49 51.4374C193.338 51.4374 191.609 49.7083 191.609 47.5566C191.609 45.4048 193.338 43.6758 195.49 43.6758C197.642 43.6758 199.371 45.4048 199.371 47.5566Z" fill="white"/>
</mask>
<g mask="url(#mask9)">
<g filter="url(#filter19_f)">
<path d="M199.486 51.5143C199.486 53.7429 197.68 55.5872 195.413 55.5872C193.184 55.5872 191.34 53.7813 191.34 51.5143C191.34 49.2857 193.146 47.4414 195.413 47.4414C197.68 47.4414 199.486 49.2857 199.486 51.5143Z" fill="white"/>
</g>
<g opacity="0.1" filter="url(#filter20_f)">
<path d="M199.486 44.1364C199.486 46.365 197.68 48.2093 195.413 48.2093C193.184 48.2093 191.34 46.4034 191.34 44.1364C191.34 41.9078 193.146 40.0635 195.413 40.0635C197.68 40.0635 199.486 41.9078 199.486 44.1364Z" fill="black"/>
</g>
<g style="mix-blend-mode:soft-light" opacity="0.297101">
<rect x="-139.257" y="-24.2573" width="614.779" height="614.779" fill="#E4E4E4"/>
</g>
</g>
<g filter="url(#filter21_i)">
<path d="M197.949 47.5563C197.949 48.9011 196.834 50.0154 195.49 50.0154C194.145 50.0154 193.031 48.9011 193.031 47.5563C193.031 46.2115 194.145 45.0972 195.49 45.0972C196.834 45.0972 197.949 46.2115 197.949 47.5563Z" fill="#E0E0E0"/>
</g>
<mask id="mask10" mask-type="alpha" maskUnits="userSpaceOnUse" x="193" y="45" width="5" height="6">
<path d="M197.949 47.5563C197.949 48.9011 196.834 50.0154 195.49 50.0154C194.145 50.0154 193.031 48.9011 193.031 47.5563C193.031 46.2115 194.145 45.0972 195.49 45.0972C196.834 45.0972 197.949 46.2115 197.949 47.5563Z" fill="white"/>
</mask>
<g mask="url(#mask10)">
<g filter="url(#filter22_f)">
<path fill-rule="evenodd" clip-rule="evenodd" d="M193.645 48.0562C193.376 48.4788 194.414 49.5931 195.413 49.5931C196.374 49.5931 197.603 48.5557 197.411 48.0946C197.065 48.2867 196.297 48.6709 195.451 48.6709C194.606 48.6709 193.914 48.3251 193.645 48.0562Z" fill="white"/>
</g>
<g filter="url(#filter23_f)">
<path fill-rule="evenodd" clip-rule="evenodd" d="M195.067 46.25C195.605 46.25 196.028 46.6727 196.028 47.2106C196.028 47.7485 195.605 48.1712 195.067 48.1712C194.529 48.1712 194.106 47.7485 194.106 47.2106C194.106 46.6727 194.529 46.25 195.067 46.25Z" fill="white"/>
</g>
<g style="mix-blend-mode:soft-light" opacity="0.297101">
<rect x="-138.104" y="-22.7207" width="614.779" height="614.779" fill="#E4E4E4"/>
</g>
</g>
</g>
<defs>
<filter id="filter0_d" x="0" y="-1" width="336" height="491" filterUnits="userSpaceOnUse" color-interpolation-filters="sRGB">
<feFlood flood-opacity="0" result="BackgroundImageFix"/>
<feColorMatrix in="SourceAlpha" type="matrix" values="0 0 0 0 0 0 0 0 0 0 0 0 0 0 0 0 0 0 127 0"/>
<feOffset dy="12"/>
<feGaussianBlur stdDeviation="20"/>
<feColorMatrix type="matrix" values="0 0 0 0 0 0 0 0 0 0 0 0 0 0 0 0 0 0 0.18 0"/>
<feBlend mode="normal" in2="BackgroundImageFix" result="effect1_dropShadow"/>
<feBlend mode="normal" in="SourceGraphic" in2="effect1_dropShadow" result="shape"/>
</filter>
<filter id="filter1_f" x="33.0694" y="87.014" width="270.126" height="140.6" filterUnits="userSpaceOnUse" color-interpolation-filters="sRGB">
<feFlood flood-opacity="0" result="BackgroundImageFix"/>
<feBlend mode="normal" in="SourceGraphic" in2="BackgroundImageFix" result="shape"/>
<feGaussianBlur stdDeviation="3.13339" result="effect1_foregroundBlur"/>
</filter>
<filter id="filter2_f" x="36.2028" y="88.4965" width="263.667" height="136.984" filterUnits="userSpaceOnUse" color-interpolation-filters="sRGB">
<feFlood flood-opacity="0" result="BackgroundImageFix"/>
<feBlend mode="normal" in="SourceGraphic" in2="BackgroundImageFix" result="shape"/>
<feGaussianBlur stdDeviation="1.5667" result="effect1_foregroundBlur"/>
</filter>
<filter id="filter3_f" x="37.2473" y="89.6176" width="261.77" height="133.819" filterUnits="userSpaceOnUse" color-interpolation-filters="sRGB">
<feFlood flood-opacity="0" result="BackgroundImageFix"/>
<feBlend mode="normal" in="SourceGraphic" in2="BackgroundImageFix" result="shape"/>
<feGaussianBlur stdDeviation="1.04446" result="effect1_foregroundBlur"/>
</filter>
<filter id="filter4_f" x="37.2473" y="89.9247" width="261.77" height="133.819" filterUnits="userSpaceOnUse" color-interpolation-filters="sRGB">
<feFlood flood-opacity="0" result="BackgroundImageFix"/>
<feBlend mode="normal" in="SourceGraphic" in2="BackgroundImageFix" result="shape"/>
<feGaussianBlur stdDeviation="1.04446" result="effect1_foregroundBlur"/>
</filter>
<filter id="filter5_f" x="35.0185" y="94.3046" width="6.99331" height="24.9266" filterUnits="userSpaceOnUse" color-interpolation-filters="sRGB">
<feFlood flood-opacity="0" result="BackgroundImageFix"/>
<feBlend mode="normal" in="SourceGraphic" in2="BackgroundImageFix" result="shape"/>
<feGaussianBlur stdDeviation="1.04446" result="effect1_foregroundBlur"/>
</filter>
<filter id="filter6_f" x="33.8659" y="128.073" width="8.14602" height="94.8536" filterUnits="userSpaceOnUse" color-interpolation-filters="sRGB">
<feFlood flood-opacity="0" result="BackgroundImageFix"/>
<feBlend mode="normal" in="SourceGraphic" in2="BackgroundImageFix" result="shape"/>
<feGaussianBlur stdDeviation="1.04446" result="effect1_foregroundBlur"/>
</filter>
<filter id="filter7_f" x="295.122" y="128.073" width="8.14602" height="94.8536" filterUnits="userSpaceOnUse" color-interpolation-filters="sRGB">
<feFlood flood-opacity="0" result="BackgroundImageFix"/>
<feBlend mode="normal" in="SourceGraphic" in2="BackgroundImageFix" result="shape"/>
<feGaussianBlur stdDeviation="1.04446" result="effect1_foregroundBlur"/>
</filter>
<filter id="filter8_f" x="32.8387" y="18.6585" width="271.548" height="525.797" filterUnits="userSpaceOnUse" color-interpolation-filters="sRGB">
<feFlood flood-opacity="0" result="BackgroundImageFix"/>
<feBlend mode="normal" in="SourceGraphic" in2="BackgroundImageFix" result="shape"/>
<feGaussianBlur stdDeviation="3.13339" result="effect1_foregroundBlur"/>
</filter>
<filter id="filter9_f" x="31.0393" y="16.5137" width="274.416" height="536.888" filterUnits="userSpaceOnUse" color-interpolation-filters="sRGB">
<feFlood flood-opacity="0" result="BackgroundImageFix"/>
<feBlend mode="normal" in="SourceGraphic" in2="BackgroundImageFix" result="shape"/>
<feGaussianBlur stdDeviation="8.35571" result="effect1_foregroundBlur"/>
</filter>
<filter id="filter10_f" x="31.0393" y="16.5137" width="274.416" height="533.43" filterUnits="userSpaceOnUse" color-interpolation-filters="sRGB">
<feFlood flood-opacity="0" result="BackgroundImageFix"/>
<feBlend mode="normal" in="SourceGraphic" in2="BackgroundImageFix" result="shape"/>
<feGaussianBlur stdDeviation="8.35571" result="effect1_foregroundBlur"/>
</filter>
<filter id="filter11_f" x="36.7437" y="24.9851" width="263.007" height="514.413" filterUnits="userSpaceOnUse" color-interpolation-filters="sRGB">
<feFlood flood-opacity="0" result="BackgroundImageFix"/>
<feBlend mode="normal" in="SourceGraphic" in2="BackgroundImageFix" result="shape"/>
<feGaussianBlur stdDeviation="4.17785" result="effect1_foregroundBlur"/>
</filter>
<filter id="filter12_f" x="36.7437" y="24.9851" width="263.007" height="514.413" filterUnits="userSpaceOnUse" color-interpolation-filters="sRGB">
<feFlood flood-opacity="0" result="BackgroundImageFix"/>
<feBlend mode="normal" in="SourceGraphic" in2="BackgroundImageFix" result="shape"/>
<feGaussianBlur stdDeviation="4.17785" result="effect1_foregroundBlur"/>
</filter>
<filter id="filter13_f" x="33.9874" y="15.965" width="268.519" height="55.9213" filterUnits="userSpaceOnUse" color-interpolation-filters="sRGB">
<feFlood flood-opacity="0" result="BackgroundImageFix"/>
<feBlend mode="normal" in="SourceGraphic" in2="BackgroundImageFix" result="shape"/>
<feGaussianBlur stdDeviation="6.26678" result="effect1_foregroundBlur"/>
</filter>
<filter id="filter14_f" x="33.9738" y="21.7919" width="269.392" height="521.197" filterUnits="userSpaceOnUse" color-interpolation-filters="sRGB">
<feFlood flood-opacity="0" result="BackgroundImageFix"/>
<feBlend mode="normal" in="SourceGraphic" in2="BackgroundImageFix" result="shape"/>
<feGaussianBlur stdDeviation="1.5667" result="effect1_foregroundBlur"/>
</filter>
<filter id="filter15_f" x="33.1288" y="69.2447" width="270.468" height="428.12" filterUnits="userSpaceOnUse" color-interpolation-filters="sRGB">
<feFlood flood-opacity="0" result="BackgroundImageFix"/>
<feBlend mode="normal" in="SourceGraphic" in2="BackgroundImageFix" result="shape"/>
<feGaussianBlur stdDeviation="1.75874" result="effect1_foregroundBlur"/>
</filter>
<filter id="filter16_f" x="147.607" y="43.3996" width="40.9737" height="12.8091" filterUnits="userSpaceOnUse" color-interpolation-filters="sRGB">
<feFlood flood-opacity="0" result="BackgroundImageFix"/>
<feBlend mode="normal" in="SourceGraphic" in2="BackgroundImageFix" result="shape"/>
<feGaussianBlur stdDeviation="2.03997" result="effect1_foregroundBlur"/>
</filter>
<filter id="filter17_f" x="151.219" y="43.6303" width="34.0958" height="4.85543" filterUnits="userSpaceOnUse" color-interpolation-filters="sRGB">
<feFlood flood-opacity="0" result="BackgroundImageFix"/>
<feBlend mode="normal" in="SourceGraphic" in2="BackgroundImageFix" result="shape"/>
<feGaussianBlur stdDeviation="0.522232" result="effect1_foregroundBlur"/>
</filter>
<filter id="filter18_i" x="152.647" y="45.0972" width="31.1616" height="4.68769" filterUnits="userSpaceOnUse" color-interpolation-filters="sRGB">
<feFlood flood-opacity="0" result="BackgroundImageFix"/>
<feBlend mode="normal" in="SourceGraphic" in2="BackgroundImageFix" result="shape"/>
<feColorMatrix in="SourceAlpha" type="matrix" values="0 0 0 0 0 0 0 0 0 0 0 0 0 0 0 0 0 0 127 0" result="hardAlpha"/>
<feOffset dy="0.384237"/>
<feGaussianBlur stdDeviation="0.576355"/>
<feComposite in2="hardAlpha" operator="arithmetic" k2="-1" k3="1"/>
<feColorMatrix type="matrix" values="0 0 0 0 0 0 0 0 0 0 0 0 0 0 0 0 0 0 0.297186 0"/>
<feBlend mode="normal" in2="shape" result="effect1_innerShadow"/>
</filter>
<filter id="filter19_f" x="187.162" y="43.2636" width="16.5015" height="16.5015" filterUnits="userSpaceOnUse" color-interpolation-filters="sRGB">
<feFlood flood-opacity="0" result="BackgroundImageFix"/>
<feBlend mode="normal" in="SourceGraphic" in2="BackgroundImageFix" result="shape"/>
<feGaussianBlur stdDeviation="2.08893" result="effect1_foregroundBlur"/>
</filter>
<filter id="filter20_f" x="187.162" y="35.8856" width="16.5015" height="16.5015" filterUnits="userSpaceOnUse" color-interpolation-filters="sRGB">
<feFlood flood-opacity="0" result="BackgroundImageFix"/>
<feBlend mode="normal" in="SourceGraphic" in2="BackgroundImageFix" result="shape"/>
<feGaussianBlur stdDeviation="2.08893" result="effect1_foregroundBlur"/>
</filter>
<filter id="filter21_i" x="193.031" y="45.0972" width="4.91823" height="4.91823" filterUnits="userSpaceOnUse" color-interpolation-filters="sRGB">
<feFlood flood-opacity="0" result="BackgroundImageFix"/>
<feBlend mode="normal" in="SourceGraphic" in2="BackgroundImageFix" result="shape"/>
<feColorMatrix in="SourceAlpha" type="matrix" values="0 0 0 0 0 0 0 0 0 0 0 0 0 0 0 0 0 0 127 0" result="hardAlpha"/>
<feOffset/>
<feGaussianBlur stdDeviation="0.960592"/>
<feComposite in2="hardAlpha" operator="arithmetic" k2="-1" k3="1"/>
<feColorMatrix type="matrix" values="0 0 0 0 0 0 0 0 0 0 0 0 0 0 0 0 0 0 0.281646 0"/>
<feBlend mode="normal" in2="shape" result="effect1_innerShadow"/>
</filter>
<filter id="filter22_f" x="192.558" y="47.0117" width="5.9176" height="3.62587" filterUnits="userSpaceOnUse" color-interpolation-filters="sRGB">
<feFlood flood-opacity="0" result="BackgroundImageFix"/>
<feBlend mode="normal" in="SourceGraphic" in2="BackgroundImageFix" result="shape"/>
<feGaussianBlur stdDeviation="0.522232" result="effect1_foregroundBlur"/>
</filter>
<filter id="filter23_f" x="193.062" y="45.2055" width="4.01011" height="4.01011" filterUnits="userSpaceOnUse" color-interpolation-filters="sRGB">
<feFlood flood-opacity="0" result="BackgroundImageFix"/>
<feBlend mode="normal" in="SourceGraphic" in2="BackgroundImageFix" result="shape"/>
<feGaussianBlur stdDeviation="0.522232" result="effect1_foregroundBlur"/>
</filter>
<clipPath id="clip0">
<rect width="256" height="411" fill="white" transform="translate(40 27)"/>
</clipPath>
</defs>
</svg>
