<svg width="20" height="21" viewBox="0 0 20 21" fill="none" xmlns="http://www.w3.org/2000/svg">
<g clip-path="url(#clip0)">
<path d="M19.1305 0.5H0.869595C0.509556 0.5 0.217407 0.791914 0.217407 1.15219V19.8479C0.217407 20.2081 0.509556 20.5 0.869595 20.5H19.1305C19.4905 20.5 19.7826 20.2081 19.7826 19.8479V1.15219C19.7826 0.791914 19.4905 0.5 19.1305 0.5ZM5.8696 17.6739C5.8696 17.7939 5.77194 17.8913 5.65221 17.8913H3.0435C2.92377 17.8913 2.82612 17.7939 2.82612 17.6739V15.0652C2.82612 14.9453 2.92377 14.8479 3.0435 14.8479H5.65221C5.77194 14.8479 5.8696 14.9453 5.8696 15.0652V17.6739ZM5.8696 12.0218C5.8696 12.1417 5.77194 12.2391 5.65221 12.2391H3.0435C2.92377 12.2391 2.82612 12.1417 2.82612 12.0218V9.41305C2.82612 9.29309 2.92377 9.19566 3.0435 9.19566H5.65221C5.77194 9.19566 5.8696 9.29309 5.8696 9.41305V12.0218ZM11.5218 17.6739C11.5218 17.7939 11.4241 17.8913 11.3044 17.8913H8.69569C8.57596 17.8913 8.47831 17.7939 8.47831 17.6739V15.0652C8.47831 14.9453 8.57596 14.8479 8.69569 14.8479H11.3044C11.4241 14.8479 11.5218 14.9453 11.5218 15.0652V17.6739ZM11.5218 12.0218C11.5218 12.1417 11.4241 12.2391 11.3044 12.2391H8.69569C8.57596 12.2391 8.47831 12.1417 8.47831 12.0218V9.41305C8.47831 9.29309 8.57596 9.19566 8.69569 9.19566H11.3044C11.4241 9.19566 11.5218 9.29309 11.5218 9.41305V12.0218ZM17.1739 17.6739C17.1739 17.7939 17.0763 17.8913 16.9565 17.8913H14.3478C14.2281 17.8913 14.1305 17.7939 14.1305 17.6739V9.41305C14.1305 9.29309 14.2281 9.19566 14.3478 9.19566H16.9565C17.0763 9.19566 17.1739 9.29309 17.1739 9.41305V17.6739ZM17.1739 5.93477C17.1739 6.29504 16.8818 6.58695 16.5217 6.58695H3.47831C3.11827 6.58695 2.82612 6.29504 2.82612 5.93477V3.76086C2.82612 3.40059 3.11827 3.10867 3.47831 3.10867H16.5218C16.8818 3.10867 17.174 3.40059 17.174 3.76086V5.93477H17.1739Z" fill="white"/>
</g>
<defs>
<clipPath id="clip0">
<rect width="20" height="20" fill="white" transform="translate(0 0.5)"/>
</clipPath>
</defs>
</svg>
