<svg width="200" height="200" viewBox="0 0 200 200" fill="none" xmlns="http://www.w3.org/2000/svg">
<rect width="200" height="200" fill="white"/>
<path d="M169.579 135.074L150.199 115.692C145.195 110.688 137.094 110.686 132.089 115.692C129.923 117.858 120.706 127.075 118.522 129.259C116.66 131.122 103.622 127.257 88.1806 111.816C81.2951 104.929 75.8091 97.5612 72.734 91.0686C69.9465 85.183 70.1963 82.0143 70.7383 81.472L84.3046 67.9048C89.2978 62.9113 89.2978 54.7866 84.3046 49.7933L64.9241 30.4113C59.9308 25.4181 51.8069 25.4184 46.814 30.4113C44.6481 32.5774 35.431 41.795 33.2474 43.9788C25.1452 52.0814 24.5033 66.2063 31.4395 83.752C48.9549 128.057 104.287 173.333 138 173.333C145.49 173.333 151.632 171.133 156.013 166.752L169.579 153.185C174.584 148.18 174.585 140.079 169.579 135.074ZM58.4421 36.8937L77.8227 56.2757C79.2418 57.6946 79.2418 60.0036 77.8227 61.4228L73.3112 65.9344L48.7842 41.4054L53.2956 36.8937C54.7147 35.4748 57.0233 35.4748 58.4421 36.8937ZM119.613 160.035C88.2162 147.622 52.3755 111.776 39.9642 80.3819C34.5344 66.6475 34.4488 55.7417 39.729 50.4611L42.3023 47.8877L66.8296 72.4165L64.2563 74.9899C47.0388 92.2085 107.769 152.978 125.004 135.741L127.577 133.168L152.104 157.697L149.531 160.27C144.251 165.551 133.346 165.465 119.613 160.035ZM163.098 146.703L158.586 151.214L134.059 126.686L138.571 122.174C139.992 120.752 142.295 120.751 143.718 122.174L163.098 141.556C164.52 142.978 164.52 145.28 163.098 146.703Z" fill="url(#paint0_linear)"/>
<path d="M109.164 84.4139C112.702 84.4139 115.581 87.2924 115.581 90.831C115.581 93.3623 117.632 95.4146 120.164 95.4146C122.695 95.4146 124.747 93.3623 124.747 90.831C124.747 82.2379 117.756 75.2467 109.164 75.2467C106.632 75.2467 104.581 77.299 104.581 79.8303C104.581 82.3616 106.632 84.4139 109.164 84.4139Z" fill="url(#paint1_linear)"/>
<path d="M109.164 62.4123C124.833 62.4123 137.581 75.1608 137.581 90.8307C137.581 93.362 139.632 95.4143 142.164 95.4143C144.695 95.4143 146.747 93.362 146.747 90.8307C146.747 70.1059 129.887 53.2451 109.164 53.2451C106.632 53.2451 104.581 55.2974 104.581 57.8287C104.581 60.36 106.632 62.4123 109.164 62.4123Z" fill="url(#paint2_linear)"/>
<path d="M109.164 40.411C136.964 40.411 159.581 63.0291 159.581 90.8307C159.581 93.362 161.632 95.4143 164.164 95.4143C166.695 95.4143 168.747 93.362 168.747 90.8307C168.747 57.9745 142.018 31.2438 109.164 31.2438C106.632 31.2438 104.581 33.2961 104.581 35.8274C104.581 38.3587 106.632 40.411 109.164 40.411Z" fill="url(#paint3_linear)"/>
<defs>
<linearGradient id="paint0_linear" x1="26.6666" y1="26.6665" x2="173.333" y2="173.333" gradientUnits="userSpaceOnUse">
<stop stop-color="#FAD297"/>
<stop offset="1" stop-color="#E2B37C"/>
</linearGradient>
<linearGradient id="paint1_linear" x1="26.6666" y1="26.6665" x2="173.333" y2="173.333" gradientUnits="userSpaceOnUse">
<stop stop-color="#FAD297"/>
<stop offset="1" stop-color="#E2B37C"/>
</linearGradient>
<linearGradient id="paint2_linear" x1="26.6666" y1="26.6665" x2="173.333" y2="173.333" gradientUnits="userSpaceOnUse">
<stop stop-color="#FAD297"/>
<stop offset="1" stop-color="#E2B37C"/>
</linearGradient>
<linearGradient id="paint3_linear" x1="26.6666" y1="26.6665" x2="173.333" y2="173.333" gradientUnits="userSpaceOnUse">
<stop stop-color="#FAD297"/>
<stop offset="1" stop-color="#E2B37C"/>
</linearGradient>
</defs>
</svg>
