<svg width="22" height="22" viewBox="0 0 22 22" fill="none" xmlns="http://www.w3.org/2000/svg">
<path d="M7.86447 4.24553C7.86447 4.10839 7.88352 3.81222 7.92161 3.3589C7.96256 2.90464 8.13398 2.42942 8.44159 1.93039C8.74634 1.43327 9.2406 0.986624 9.92819 0.591403C10.6129 0.198087 11.6024 0 12.8938 0H16.5317V3.96459H13.868C13.6042 3.96459 13.3585 4.06363 13.1366 4.25886C12.9166 4.45409 12.8033 4.6398 12.8033 4.81217V7.27873H16.5308C16.4917 7.76157 16.4489 8.23107 16.3993 8.68439L16.2517 9.88243C16.1927 10.2872 16.1327 10.6624 16.0736 11.0081H12.7766V22H7.86447V11.0071H5.46838V7.27873H7.86447V4.24553Z" fill="#3B5998"/>
</svg>
