<svg width="22" height="22" viewBox="0 0 22 22" fill="none" xmlns="http://www.w3.org/2000/svg">
<g clip-path="url(#clip0)">
<path d="M21.6234 3.935C21.4231 2.05881 19.9414 0.576721 18.065 0.376648C13.3596 -0.125549 8.64041 -0.125549 3.93517 0.376648C2.05881 0.576889 0.576889 2.05881 0.376648 3.935C-0.125549 8.64024 -0.125549 13.3596 0.376648 18.0648C0.576889 19.9412 2.05881 21.4231 3.935 21.6234C8.64024 22.1255 13.3596 22.1255 18.065 21.6234C19.9414 21.4231 21.4231 19.9412 21.6234 18.0648C22.1255 13.3596 22.1255 8.64041 21.6234 3.935Z" fill="url(#paint0_radial)"/>
<path d="M20.4268 4.73106C20.2492 3.06618 18.9343 1.75111 17.2693 1.57336C13.0939 1.12789 8.90617 1.12789 4.73081 1.57336C3.06594 1.75111 1.75086 3.06618 1.57311 4.73106C1.12765 8.90641 1.12765 13.0942 1.57311 17.2694C1.75086 18.9344 3.06594 20.2495 4.73081 20.4271C8.90617 20.8727 13.0939 20.8727 17.2691 20.4271C18.9342 20.2495 20.2492 18.9344 20.4268 17.2694C20.8725 13.0942 20.8725 8.90641 20.4268 4.73106Z" fill="url(#paint1_linear)"/>
<path d="M0.32959 17.6089C0.344696 17.761 0.360306 17.913 0.376587 18.0651C0.576828 19.9413 2.05875 21.4232 3.9351 21.6234C8.64035 22.1256 13.3597 22.1256 18.0649 21.6234C19.9413 21.4232 21.423 19.9413 21.6233 18.0651C21.6396 17.913 21.6552 17.761 21.6705 17.6089H0.32959Z" fill="url(#paint2_linear)"/>
<path d="M21.6234 18.0649C21.8933 15.5366 22.0178 13.0043 21.9977 10.4723L16.969 5.44365C16.3408 4.72644 15.4231 4.27879 14.3449 4.24002C12.1275 4.16013 9.903 4.16415 7.68524 4.24036C5.84329 4.3038 4.55524 5.54184 4.22491 7.36147C4.16667 7.68272 4.13176 8.00818 4.08594 8.33179V13.6663C4.11128 13.8392 4.14854 14.0112 4.16013 14.1851C4.23398 15.2919 4.68884 16.2399 5.41713 16.8812L10.5344 21.9984C13.0458 22.016 15.5573 21.8911 18.065 21.6234C19.9414 21.4232 21.4232 19.9412 21.6234 18.0649Z" fill="url(#paint3_linear)"/>
<path d="M21.6234 18.0653C21.4234 19.9413 19.9411 21.4236 18.0651 21.6237C15.5576 21.8912 13.0456 22.0163 10.5346 21.9986L5.42505 16.889C6.01738 17.4075 6.78947 17.7232 7.68544 17.757C9.9027 17.8402 12.1277 17.838 14.3449 17.7581C16.3504 17.6856 17.8016 16.2014 17.8642 14.1959C17.931 12.0666 17.931 9.93179 17.8642 7.80249C17.8356 6.87732 17.5108 6.06326 16.9724 5.44727L21.9979 10.4728C22.0177 13.0044 21.8932 15.537 21.6234 18.0653Z" fill="url(#paint4_linear)"/>
<path d="M13.596 8.61809C12.9518 7.91666 12.0275 7.47656 11.0001 7.47656C9.05408 7.47656 7.47632 9.05432 7.47632 11.0003C7.47632 12.0277 7.91641 12.9521 8.61784 13.5963L16.7707 21.7491C17.2022 21.7115 17.6337 21.6697 18.0649 21.6237C19.9413 21.4234 21.4232 19.9415 21.6234 18.0652C21.6694 17.634 21.7112 17.2024 21.7488 16.7709L13.596 8.61809Z" fill="url(#paint5_linear)"/>
<path d="M21.9573 13.3702L15.3959 6.80887C15.2428 6.60796 15.0016 6.47754 14.7295 6.47754C14.2666 6.47754 13.8911 6.85284 13.8911 7.31593C13.8911 7.58801 14.0215 7.82921 14.2224 7.98228L21.84 15.6C21.8917 14.8569 21.9308 14.1136 21.9573 13.3702Z" fill="url(#paint6_linear)"/>
<path d="M4.08594 8.33179C4.13176 8.00818 4.16667 7.68272 4.22491 7.36147C4.55507 5.54184 5.84329 4.3038 7.68524 4.24036C9.903 4.16415 12.1275 4.16013 14.3449 4.24002C16.3497 4.31219 17.8015 5.79663 17.8641 7.80206C17.9308 9.93153 17.9308 12.0662 17.8641 14.1957C17.8015 16.2011 16.3502 17.6854 14.3451 17.7577C12.1276 17.8378 9.90266 17.8398 7.68541 17.7565C5.68031 17.6812 4.29424 16.1934 4.16013 14.1849C4.14854 14.0112 4.11128 13.839 4.08594 13.6661C4.08594 11.888 4.08594 10.1098 4.08594 8.33179ZM11.0019 16.5692C12.0167 16.5692 13.0325 16.5996 14.046 16.5622C15.635 16.5032 16.6123 15.5549 16.6494 13.9674C16.6954 11.9893 16.6954 10.0086 16.6494 8.03033C16.6123 6.44318 15.6343 5.47269 14.046 5.43895C12.03 5.39632 10.0118 5.39665 7.99576 5.43895C6.41951 5.47202 5.43929 6.42287 5.39648 7.99257C5.3421 9.99565 5.3421 12.0023 5.39648 14.0053C5.43929 15.5749 6.41951 16.5037 7.99593 16.5622C8.99663 16.5994 9.99985 16.5692 11.0019 16.5692Z" fill="url(#paint7_linear)"/>
<path d="M4.08594 8.33179C4.13176 8.00818 4.16667 7.68272 4.22491 7.36147C4.55507 5.54184 5.84329 4.3038 7.68524 4.24036C9.903 4.16415 12.1275 4.16013 14.3449 4.24002C16.3497 4.31219 17.8015 5.79663 17.8641 7.80206C17.9308 9.93153 17.9308 12.0662 17.8641 14.1957C17.8015 16.2011 16.3502 17.6854 14.3451 17.7577C12.1276 17.8378 9.90266 17.8398 7.68541 17.7565C5.68031 17.6812 4.29424 16.1934 4.16013 14.1849C4.14854 14.0112 4.11128 13.839 4.08594 13.6661C4.08594 11.888 4.08594 10.1098 4.08594 8.33179ZM11.0019 16.5692C12.0167 16.5692 13.0325 16.5996 14.046 16.5622C15.635 16.5032 16.6123 15.5549 16.6494 13.9674C16.6954 11.9893 16.6954 10.0086 16.6494 8.03033C16.6123 6.44318 15.6343 5.47269 14.046 5.43895C12.03 5.39632 10.0118 5.39665 7.99576 5.43895C6.41951 5.47202 5.43929 6.42287 5.39648 7.99257C5.3421 9.99565 5.3421 12.0023 5.39648 14.0053C5.43929 15.5749 6.41951 16.5037 7.99593 16.5622C8.99663 16.5994 9.99985 16.5692 11.0019 16.5692Z" fill="white"/>
<path d="M11.0001 7.47656C9.05408 7.47656 7.47632 9.05415 7.47632 11.0002C7.47632 12.9463 9.05408 14.5239 11.0001 14.5239C12.9463 14.5239 14.5239 12.9463 14.5239 11.0002C14.5239 9.05415 12.9463 7.47656 11.0001 7.47656ZM11.0001 13.3107C9.72395 13.3107 8.68951 12.2763 8.68951 11.0002C8.68951 9.72403 9.72395 8.68959 11.0001 8.68959C12.2762 8.68959 13.3107 9.72403 13.3107 11.0002C13.3107 12.2763 12.2762 13.3107 11.0001 13.3107Z" fill="white"/>
<path d="M15.5677 7.31544C15.5677 7.77837 15.1924 8.15367 14.7295 8.15367C14.2666 8.15367 13.8911 7.77837 13.8911 7.31544C13.8911 6.85236 14.2666 6.47705 14.7295 6.47705C15.1924 6.47705 15.5677 6.85236 15.5677 7.31544Z" fill="white"/>
</g>
<defs>
<radialGradient id="paint0_radial" cx="0" cy="0" r="1" gradientUnits="userSpaceOnUse" gradientTransform="translate(4.50988 19.2263) scale(24.2621)">
<stop stop-color="#FAE100"/>
<stop offset="0.0544" stop-color="#FADC04"/>
<stop offset="0.1167" stop-color="#FBCE0E"/>
<stop offset="0.1829" stop-color="#FCB720"/>
<stop offset="0.2514" stop-color="#FE9838"/>
<stop offset="0.3054" stop-color="#FF7950"/>
<stop offset="0.4922" stop-color="#FF1C74"/>
<stop offset="1" stop-color="#6C1CD1"/>
</radialGradient>
<linearGradient id="paint1_linear" x1="8.43794" y1="9.55911" x2="-28.8327" y2="-11.4056" gradientUnits="userSpaceOnUse">
<stop stop-color="#A1B5D8" stop-opacity="0"/>
<stop offset="0.3094" stop-color="#90A2BD" stop-opacity="0.309804"/>
<stop offset="0.7554" stop-color="#7C8B9C" stop-opacity="0.756863"/>
<stop offset="1" stop-color="#748290"/>
</linearGradient>
<linearGradient id="paint2_linear" x1="11" y1="19.4205" x2="11" y2="22.8498" gradientUnits="userSpaceOnUse">
<stop stop-color="#FAE100" stop-opacity="0"/>
<stop offset="0.3068" stop-color="#FCA800" stop-opacity="0.305882"/>
<stop offset="0.6275" stop-color="#FE7300" stop-opacity="0.627451"/>
<stop offset="0.8685" stop-color="#FF5200" stop-opacity="0.866667"/>
<stop offset="1" stop-color="#FF4500"/>
</linearGradient>
<linearGradient id="paint3_linear" x1="9.74847" y1="9.71734" x2="4.30383" y2="4.27269" gradientUnits="userSpaceOnUse">
<stop stop-color="#833AB4" stop-opacity="0"/>
<stop offset="1" stop-color="#833AB4"/>
</linearGradient>
<linearGradient id="paint4_linear" x1="15.0778" y1="20.122" x2="12.3603" y2="7.3109" gradientUnits="userSpaceOnUse">
<stop stop-color="#833AB4" stop-opacity="0"/>
<stop offset="1" stop-color="#833AB4"/>
</linearGradient>
<linearGradient id="paint5_linear" x1="16.1119" y1="16.1121" x2="5.19678" y2="5.19701" gradientUnits="userSpaceOnUse">
<stop stop-color="#833AB4" stop-opacity="0"/>
<stop offset="1" stop-color="#833AB4"/>
</linearGradient>
<linearGradient id="paint6_linear" x1="16.9213" y1="9.50773" x2="13.3119" y2="5.89833" gradientUnits="userSpaceOnUse">
<stop stop-color="#833AB4" stop-opacity="0"/>
<stop offset="1" stop-color="#833AB4"/>
</linearGradient>
<linearGradient id="paint7_linear" x1="15.3682" y1="6.66233" x2="6.46867" y2="15.5618" gradientUnits="userSpaceOnUse">
<stop stop-color="#833AB4"/>
<stop offset="0.0922" stop-color="#9C3495"/>
<stop offset="0.2927" stop-color="#DC2546"/>
<stop offset="0.392" stop-color="#FD1D1D"/>
<stop offset="0.5589" stop-color="#FC6831"/>
<stop offset="0.6887" stop-color="#FC9B40"/>
<stop offset="0.7521" stop-color="#FCAF45"/>
<stop offset="0.7806" stop-color="#FDB750"/>
<stop offset="0.8656" stop-color="#FECB6A"/>
<stop offset="0.9415" stop-color="#FFD87A"/>
<stop offset="1" stop-color="#FFDC80"/>
</linearGradient>
<clipPath id="clip0">
<rect width="22" height="22" fill="white"/>
</clipPath>
</defs>
</svg>
