<svg width="22" height="22" viewBox="0 0 22 22" fill="none" xmlns="http://www.w3.org/2000/svg">
<g clip-path="url(#clip0)">
<path d="M21.9876 9.15824C21.9796 8.71633 21.9446 8.15759 21.8834 7.48253C21.8219 6.80708 21.7339 6.20345 21.6194 5.67158C21.4884 5.07418 21.204 4.57078 20.7662 4.16155C20.3284 3.75223 19.8189 3.51496 19.2376 3.44938C17.4205 3.24492 14.6746 3.14258 10.9999 3.14258C7.32519 3.14258 4.57929 3.24492 2.76232 3.44938C2.18114 3.51492 1.67361 3.75223 1.23995 4.16155C0.806122 4.57065 0.523741 5.07405 0.392763 5.67158C0.270126 6.20362 0.177934 6.80721 0.116573 7.48253C0.0552981 8.15759 0.020468 8.71611 0.012341 9.15824C0.00404201 9.60019 0 10.214 0 10.9998C0 11.7855 0.00404201 12.3994 0.012384 12.8413C0.020511 13.2835 0.0553411 13.8419 0.116616 14.5169C0.177977 15.1923 0.265998 15.796 0.380594 16.3279C0.511572 16.9255 0.795931 17.4288 1.2338 17.8379C1.67176 18.2471 2.18135 18.4844 2.76237 18.55C4.57934 18.7546 7.32506 18.8569 11 18.8569C14.675 18.8569 17.4205 18.7546 19.2376 18.55C19.8189 18.4845 20.3262 18.2471 20.76 17.8379C21.1939 17.4288 21.4761 16.9252 21.6071 16.3279C21.7298 15.796 21.8219 15.1923 21.8834 14.5169C21.9446 13.842 21.9794 13.2832 21.9876 12.8413C21.9958 12.3994 22 11.7855 22 10.9998C22 10.214 21.9959 9.60019 21.9876 9.15824ZM15.346 11.6627L9.06037 15.5912C8.94573 15.673 8.80646 15.7139 8.64284 15.7139C8.52016 15.7139 8.39331 15.681 8.26238 15.6156C7.99234 15.4684 7.85736 15.2392 7.85736 14.9282V7.07132C7.85736 6.76047 7.99238 6.5312 8.26238 6.38392C8.54072 6.23639 8.80663 6.24464 9.06037 6.40847L15.346 10.337C15.5915 10.4758 15.7142 10.697 15.7142 10.9998C15.7142 11.3025 15.5914 11.5237 15.346 11.6627Z" fill="#FF0000"/>
</g>
<defs>
<clipPath id="clip0">
<rect width="22" height="22" fill="white"/>
</clipPath>
</defs>
</svg>
