<svg width="100" height="100" viewBox="0 0 100 100" fill="none" xmlns="http://www.w3.org/2000/svg">
<g clip-path="url(#clip0)">
<path d="M98.288 17.8864C97.3778 9.35822 90.6425 2.62146 82.1136 1.71204C60.7254 -0.570679 39.2746 -0.570679 17.8871 1.71204C9.35822 2.62222 2.62222 9.35822 1.71204 17.8864C-0.570679 39.2738 -0.570679 60.7254 1.71204 82.1129C2.62222 90.6418 9.35822 97.3778 17.8864 98.288C39.2738 100.571 60.7254 100.571 82.1136 98.288C90.6425 97.3778 97.3778 90.6418 98.288 82.1129C100.571 60.7254 100.571 39.2746 98.288 17.8864Z" fill="url(#paint0_radial)"/>
<path d="M92.849 21.5032C92.0419 13.9356 86.065 7.95793 78.4966 7.14998C59.5177 5.12514 40.4824 5.12514 21.5035 7.14998C13.9359 7.95793 7.9583 13.9356 7.15034 21.5032C5.1255 40.482 5.1255 59.5174 7.15034 78.4955C7.9583 86.0639 13.9359 92.0415 21.5035 92.8487C40.4824 94.8743 59.5177 94.8743 78.4959 92.8487C86.0642 92.0415 92.0419 86.0639 92.849 78.4955C94.8746 59.5174 94.8746 40.482 92.849 21.5032Z" fill="url(#paint1_linear)"/>
<path d="M1.49841 80.04C1.56708 80.7313 1.63803 81.4225 1.71204 82.1137C2.62222 90.6418 9.35822 97.3778 17.8871 98.288C39.2746 100.571 60.7262 100.571 82.1136 98.288C90.6425 97.3778 97.3778 90.6418 98.288 82.1137C98.362 81.4225 98.4329 80.7313 98.5023 80.04H1.49841Z" fill="url(#paint2_linear)"/>
<path d="M98.2881 82.113C99.5149 70.6208 100.081 59.1103 99.9895 47.6014L77.1318 24.7437C74.2761 21.4837 70.1051 19.4489 65.204 19.2727C55.1248 18.9095 45.0136 18.9278 34.9329 19.2742C26.5604 19.5626 20.7056 25.19 19.2041 33.4611C18.9394 34.9213 18.7807 36.4007 18.5724 37.8716V62.1194C18.6876 62.9052 18.857 63.6872 18.9096 64.4776C19.2453 69.5084 21.3129 73.8175 24.6233 76.7327L47.8838 99.9925C59.2989 100.073 70.7147 99.5049 82.1138 98.2881C90.6427 97.3779 97.3779 90.6419 98.2881 82.113Z" fill="url(#paint3_linear)"/>
<path d="M98.2878 82.113C97.3784 90.6404 90.6409 97.3779 82.1135 98.2873C70.716 99.5035 59.2978 100.072 47.8842 99.9918L24.6588 76.7664C27.3512 79.1231 30.8607 80.5582 34.9333 80.7115C45.0118 81.0899 55.1253 81.08 65.2037 80.7169C74.3193 80.3873 80.9157 73.6406 81.2003 64.525C81.5039 54.8463 81.5039 45.1425 81.2003 35.4639C81.0706 31.2585 79.5943 27.5583 77.1468 24.7583L99.9899 47.6015C100.08 59.1089 99.5139 70.6209 98.2878 82.113Z" fill="url(#paint4_linear)"/>
<path d="M61.7997 39.1717C58.8715 35.9833 54.67 33.9829 50.0001 33.9829C41.1545 33.9829 33.9829 41.1545 33.9829 50.0001C33.9829 54.67 35.9833 58.8715 39.1717 61.7997L76.2299 98.8579C78.1914 98.687 80.153 98.4971 82.1129 98.288C90.6418 97.3778 97.3778 90.6418 98.288 82.1129C98.4971 80.153 98.687 78.1914 98.8579 76.2299L61.7997 39.1717Z" fill="url(#paint5_linear)"/>
<path d="M99.8061 60.772L69.9812 30.9479C69.2854 30.0347 68.1891 29.4419 66.9524 29.4419C64.8482 29.4419 63.1415 31.1478 63.1415 33.2528C63.1415 34.4895 63.7343 35.5858 64.6475 36.2816L99.2728 70.9077C99.5078 67.5301 99.6855 64.1511 99.8061 60.772Z" fill="url(#paint6_linear)"/>
<path d="M18.5724 37.8716C18.7807 36.4007 18.9394 34.9213 19.2041 33.4611C20.7048 25.19 26.5604 19.5626 34.9329 19.2742C45.0136 18.9278 55.1248 18.9095 65.204 19.2727C74.3166 19.6008 80.916 26.3482 81.2006 35.4638C81.5034 45.1432 81.5034 54.8463 81.2006 64.5257C80.916 73.6413 74.3188 80.388 65.2048 80.7168C55.1256 81.0807 45.0121 81.0899 34.9336 80.7115C25.8195 80.3689 19.5192 73.6062 18.9096 64.4769C18.857 63.6872 18.6876 62.9044 18.5724 62.1186C18.5724 54.036 18.5724 45.9535 18.5724 37.8716ZM50.0085 75.3144C54.6213 75.3144 59.2386 75.4525 63.8452 75.2824C71.068 75.0146 75.5106 70.704 75.6792 63.4881C75.8882 54.4968 75.8882 45.4934 75.6792 36.5014C75.5106 29.287 71.0649 24.8757 63.8452 24.7224C54.6815 24.5286 45.508 24.5301 36.3443 24.7224C29.1795 24.8727 24.724 29.1947 24.5294 36.3297C24.2822 45.4347 24.2822 54.5556 24.5294 63.6605C24.724 70.7948 29.1795 75.0169 36.3451 75.2824C40.8937 75.4517 45.4538 75.3144 50.0085 75.3144Z" fill="url(#paint7_linear)"/>
<path d="M18.5724 37.8716C18.7807 36.4007 18.9394 34.9213 19.2041 33.4611C20.7048 25.19 26.5604 19.5626 34.9329 19.2742C45.0136 18.9278 55.1248 18.9095 65.204 19.2727C74.3166 19.6008 80.916 26.3482 81.2006 35.4638C81.5034 45.1432 81.5034 54.8463 81.2006 64.5257C80.916 73.6413 74.3188 80.388 65.2048 80.7168C55.1256 81.0807 45.0121 81.0899 34.9336 80.7115C25.8195 80.3689 19.5192 73.6062 18.9096 64.4769C18.857 63.6872 18.6876 62.9044 18.5724 62.1186C18.5724 54.036 18.5724 45.9535 18.5724 37.8716ZM50.0085 75.3144C54.6213 75.3144 59.2386 75.4525 63.8452 75.2824C71.068 75.0146 75.5106 70.704 75.6792 63.4881C75.8882 54.4968 75.8882 45.4934 75.6792 36.5014C75.5106 29.287 71.0649 24.8757 63.8452 24.7224C54.6815 24.5286 45.508 24.5301 36.3443 24.7224C29.1795 24.8727 24.724 29.1947 24.5294 36.3297C24.2822 45.4347 24.2822 54.5556 24.5294 63.6605C24.724 70.7948 29.1795 75.0169 36.3451 75.2824C40.8937 75.4517 45.4538 75.3144 50.0085 75.3144Z" fill="white"/>
<path d="M50.0003 33.9839C41.1548 33.9839 33.9832 41.1548 33.9832 50.0003C33.9832 58.8465 41.1548 66.0174 50.0003 66.0174C58.8466 66.0174 66.0175 58.8465 66.0175 50.0003C66.0175 41.1548 58.8466 33.9839 50.0003 33.9839ZM50.0003 60.5029C44.1997 60.5029 39.4977 55.8009 39.4977 50.0003C39.4977 44.1996 44.1997 39.4976 50.0003 39.4976C55.8009 39.4976 60.5029 44.1996 60.5029 50.0003C60.5029 55.8009 55.8009 60.5029 50.0003 60.5029Z" fill="white"/>
<path d="M70.7628 33.2528C70.7628 35.357 69.0569 37.0629 66.9527 37.0629C64.8485 37.0629 63.1418 35.357 63.1418 33.2528C63.1418 31.1478 64.8485 29.4419 66.9527 29.4419C69.0569 29.4419 70.7628 31.1478 70.7628 33.2528Z" fill="white"/>
</g>
<defs>
<radialGradient id="paint0_radial" cx="0" cy="0" r="1" gradientUnits="userSpaceOnUse" gradientTransform="translate(20.4994 87.3921) scale(110.282)">
<stop stop-color="#FAE100"/>
<stop offset="0.0544" stop-color="#FADC04"/>
<stop offset="0.1167" stop-color="#FBCE0E"/>
<stop offset="0.1829" stop-color="#FCB720"/>
<stop offset="0.2514" stop-color="#FE9838"/>
<stop offset="0.3054" stop-color="#FF7950"/>
<stop offset="0.4922" stop-color="#FF1C74"/>
<stop offset="1" stop-color="#6C1CD1"/>
</radialGradient>
<linearGradient id="paint1_linear" x1="38.3541" y1="43.4489" x2="-131.058" y2="-51.8453" gradientUnits="userSpaceOnUse">
<stop stop-color="#A1B5D8" stop-opacity="0"/>
<stop offset="0.3094" stop-color="#90A2BD" stop-opacity="0.309804"/>
<stop offset="0.7554" stop-color="#7C8B9C" stop-opacity="0.756863"/>
<stop offset="1" stop-color="#748290"/>
</linearGradient>
<linearGradient id="paint2_linear" x1="50.0001" y1="88.2747" x2="50.0001" y2="103.862" gradientUnits="userSpaceOnUse">
<stop stop-color="#FAE100" stop-opacity="0"/>
<stop offset="0.3068" stop-color="#FCA800" stop-opacity="0.305882"/>
<stop offset="0.6275" stop-color="#FE7300" stop-opacity="0.627451"/>
<stop offset="0.8685" stop-color="#FF5200" stop-opacity="0.866667"/>
<stop offset="1" stop-color="#FF4500"/>
</linearGradient>
<linearGradient id="paint3_linear" x1="44.3112" y1="44.1696" x2="19.5628" y2="19.4212" gradientUnits="userSpaceOnUse">
<stop stop-color="#833AB4" stop-opacity="0"/>
<stop offset="1" stop-color="#833AB4"/>
</linearGradient>
<linearGradient id="paint4_linear" x1="68.5349" y1="91.4618" x2="56.1826" y2="33.2294" gradientUnits="userSpaceOnUse">
<stop stop-color="#833AB4" stop-opacity="0"/>
<stop offset="1" stop-color="#833AB4"/>
</linearGradient>
<linearGradient id="paint5_linear" x1="73.2354" y1="73.2354" x2="23.6214" y2="23.6213" gradientUnits="userSpaceOnUse">
<stop stop-color="#833AB4" stop-opacity="0"/>
<stop offset="1" stop-color="#833AB4"/>
</linearGradient>
<linearGradient id="paint6_linear" x1="76.9152" y1="43.2155" x2="60.5088" y2="26.8091" gradientUnits="userSpaceOnUse">
<stop stop-color="#833AB4" stop-opacity="0"/>
<stop offset="1" stop-color="#833AB4"/>
</linearGradient>
<linearGradient id="paint7_linear" x1="69.8553" y1="30.2832" x2="29.403" y2="70.7355" gradientUnits="userSpaceOnUse">
<stop stop-color="#833AB4"/>
<stop offset="0.0922" stop-color="#9C3495"/>
<stop offset="0.2927" stop-color="#DC2546"/>
<stop offset="0.392" stop-color="#FD1D1D"/>
<stop offset="0.5589" stop-color="#FC6831"/>
<stop offset="0.6887" stop-color="#FC9B40"/>
<stop offset="0.7521" stop-color="#FCAF45"/>
<stop offset="0.7806" stop-color="#FDB750"/>
<stop offset="0.8656" stop-color="#FECB6A"/>
<stop offset="0.9415" stop-color="#FFD87A"/>
<stop offset="1" stop-color="#FFDC80"/>
</linearGradient>
<clipPath id="clip0">
<rect width="100" height="100" fill="white"/>
</clipPath>
</defs>
</svg>
