<svg width="89" height="81" viewBox="0 0 89 81" fill="none" xmlns="http://www.w3.org/2000/svg">
<path d="M39.7558 0H57.227L17.4712 68.6043H0L39.7558 0Z" fill="url(#paint0_linear)"/>
<path d="M63.8346 41.9906L60.8931 36.1956L68.6817 22.8115L79.6989 41.9906H63.8346Z" fill="#C4C4C4"/>
<path fill-rule="evenodd" clip-rule="evenodd" d="M49.5642 19.7138L51.2017 16.8914L58.5358 4.22437L67.2656 19.7138H49.5642Z" fill="#C4C4C4"/>
<path fill-rule="evenodd" clip-rule="evenodd" d="M65.2279 22.6694H47.7567L14.0549 80.8266H31.5261L65.2279 22.6694Z" fill="url(#paint1_linear)"/>
<path fill-rule="evenodd" clip-rule="evenodd" d="M50.2719 36.4708L49.7055 34.781H48.0061L43.6162 36.8932L40.5007 39.9911V79.1353L42.198 80.7378C42.6137 79.9744 43.4486 78.4676 43.4486 78.4676H47.0217L47.4237 80.8268H58.8577L59.349 78.4676H64.53H64.6193H69.8003L70.2916 80.8268H81.7256L82.1276 78.4676H85.7007C85.7007 78.4676 86.5356 79.9744 86.9513 80.7378L88.6486 79.1353V39.9911L85.3915 36.7524L81.1432 34.781H79.4438L79.019 36.4708H69.3894L68.823 34.781H60.4679L59.7599 36.4708H50.2719Z" fill="#E9C682"/>
<mask id="mask0" mask-type="alpha" maskUnits="userSpaceOnUse" x="79" y="36" width="10" height="45">
<path fill-rule="evenodd" clip-rule="evenodd" d="M79.019 80.8919V39.1103H82.5715L83.0631 36.8411H85.5207L88.6487 39.9558V79.2011L86.9506 80.8029C86.5347 80.0398 85.6995 78.5336 85.6995 78.5336H82.1247L81.7225 80.8919H79.019Z" fill="#FAD297"/>
</mask>
<g mask="url(#mask0)">
<path fill-rule="evenodd" clip-rule="evenodd" d="M79.019 80.8919V39.1103H82.5715L83.0631 36.8411H85.5207L88.6487 39.9558V79.2011L86.9506 80.8029C86.5347 80.0398 85.6995 78.5336 85.6995 78.5336H82.1247L81.7225 80.8919H79.019Z" fill="#FAD297"/>
<path d="M93.3763 59.5305C93.3763 67.2426 90.0491 72.9802 84.6407 77.7053C80.0942 81.6774 74.5565 83.4886 68.0172 83.4886C59.8781 83.4886 53.7986 79.4961 49.0503 73.6208C45.4853 69.2096 43.1612 62.2682 43.1612 56.1559C43.1612 48.9613 46.432 44.4177 51.2448 39.7275C55.8995 35.1911 62.7426 33.0843 69.7978 33.0843C77.4573 33.0843 83.0488 37.2844 87.8018 42.5935C91.8673 47.1348 93.3763 52.9373 93.3763 59.5305Z" stroke="#EEBD83" stroke-width="0.299919"/>
<path d="M69.4394 35.2601C76.5719 35.2601 81.8779 38.3101 86.2481 43.2685C89.9211 47.4358 91.596 52.5116 91.596 58.5066C91.596 65.9662 87.9047 71.5388 82.4702 75.8924C78.3908 79.1605 71.9706 81.2914 66.3171 81.2914C59.664 81.2914 55.4626 78.2937 51.1239 73.8807C46.9294 69.6143 44.9808 63.3417 44.9808 56.8734C44.9808 49.854 48.8636 44.7288 53.7752 40.3702C57.9743 36.6439 63.3403 35.2601 69.4394 35.2601Z" stroke="#EEBD83" stroke-width="0.299919"/>
<path d="M74.7365 38.3954C80.997 40.0624 84.9333 43.9765 87.5975 49.3463C89.8362 53.8584 90.1066 58.7002 88.689 63.9576C86.9256 70.4976 82.3687 74.521 76.5678 77.0687C72.2145 78.9806 66.0741 79.3487 61.1108 78.0271C55.2721 76.4724 52.2933 72.8632 49.527 67.9777C46.8543 63.2573 46.6263 57.3018 48.156 51.6288C49.8151 45.4756 54.434 41.8892 59.778 39.2144C64.344 36.929 69.3811 36.9694 74.7365 38.3954Z" stroke="#EEBD83" stroke-width="0.299919"/>
<path d="M52.5906 47.8921C55.47 42.9259 59.7515 40.4613 64.9977 39.4179C69.4044 38.5414 73.6426 39.4222 77.8516 41.842C83.0856 44.851 85.5061 49.6689 86.3674 55.2129C87.0135 59.3718 85.9165 64.7044 83.6331 68.6426C80.9483 73.2732 77.1513 74.9895 72.2978 76.2319C67.612 77.4313 62.4226 76.2585 57.8803 73.6471C52.9567 70.8165 50.9272 66.0466 49.8507 60.8626C48.9317 56.4371 50.1261 52.1425 52.5906 47.8921Z" stroke="#EEBD83" stroke-width="0.299919"/>
<path d="M69.1092 41.6584C74.1791 41.6584 77.9506 43.8183 81.0595 47.3337C83.6697 50.2853 84.8609 53.8808 84.8609 58.1312C84.8609 63.4141 82.2389 67.3619 78.3717 70.4495C75.472 72.7647 70.9049 74.2761 66.8833 74.2761C62.1572 74.2761 59.1725 72.1555 56.0831 69.0236C53.1032 66.0028 51.7164 61.5586 51.7164 56.9709C51.7164 52.0024 54.4732 48.3719 57.971 45.2783C60.9539 42.6401 64.7675 41.6584 69.1092 41.6584Z" stroke="#EEBD83" stroke-width="0.299919"/>
<path d="M81.6985 62.3421C80.5702 66.5354 77.9296 69.1744 74.3031 70.9644C71.2599 72.4665 67.9949 72.652 64.4468 71.7053C60.0395 70.5294 57.3293 67.482 55.6132 63.5935C54.3273 60.6796 54.0828 56.5637 54.9782 53.236C56.0296 49.3286 58.461 47.3322 61.7649 45.4718C64.9476 43.6796 68.9648 43.5209 72.7951 44.5429C76.939 45.6485 79.3545 48.7361 81.1585 52.3218C82.6949 55.3753 82.6657 58.748 81.6985 62.3421Z" stroke="#EEBD83" stroke-width="0.299919"/>
<path d="M74.2014 69.2872C70.8764 71.1987 67.5822 71.2049 64.2034 70.0705C61.3697 69.119 59.2207 67.2106 57.6029 64.4202C55.5945 60.9564 55.8117 57.379 57.1755 53.8917C58.1969 51.2799 60.6194 48.5641 63.2589 47.0466C66.3562 45.2659 69.1174 45.5297 72.3408 46.4206C75.4422 47.2778 78.0434 49.6694 79.7903 52.6824C81.6781 55.9383 81.2525 59.3575 80.1326 62.7122C79.1801 65.5651 77.0534 67.6475 74.2014 69.2872Z" stroke="#EEBD83" stroke-width="0.299919"/>
<path d="M68.0003 68.6484C64.8036 68.6484 62.4257 67.282 60.462 65.0519C58.8166 63.1832 58.0645 60.9064 58.0645 58.2097C58.0645 54.8654 59.716 52.3649 62.1599 50.4052C63.9884 48.939 66.8727 47.9798 69.4121 47.9798C72.3881 47.9798 74.2678 49.3186 76.2229 51.3092C78.1002 53.2204 78.977 56.0361 78.977 58.9488C78.977 62.0909 77.2422 64.3898 75.0282 66.3564C73.1497 68.025 70.7459 68.6484 68.0003 68.6484Z" stroke="#EEBD83" stroke-width="0.299919"/>
<path d="M74.1757 52.8922C75.8409 54.5503 76.3671 56.4929 76.2261 58.6738C76.1083 60.4976 75.3126 62.0712 73.903 63.4749C72.1588 65.2117 69.9945 65.6554 67.6939 65.4054C65.9763 65.2187 63.97 64.2198 62.6454 62.9008C61.0972 61.3592 60.8157 59.6918 60.8359 57.6361C60.8553 55.6712 61.8671 53.7516 63.3906 52.2345C65.0278 50.6043 67.1292 50.3079 69.3167 50.435C71.1636 50.5423 72.7415 51.464 74.1757 52.8922Z" stroke="#EEBD83" stroke-width="0.299919"/>
</g>
<mask id="mask1" mask-type="alpha" maskUnits="userSpaceOnUse" x="69" y="36" width="11" height="45">
<path fill-rule="evenodd" clip-rule="evenodd" d="M69.4119 78.5336V36.8411H69.524L70.239 39.1103H79.0191V80.8919H70.2837L69.7921 78.5336H69.4119Z" fill="#F3D59A"/>
</mask>
<g mask="url(#mask1)">
<path fill-rule="evenodd" clip-rule="evenodd" d="M69.4119 78.5336V36.8411H69.524L70.239 39.1103H79.0191V80.8919H70.2837L69.7921 78.5336H69.4119Z" fill="#FCCF8E"/>
<path d="M105.889 60.5537C105.889 68.2658 102.561 74.0034 97.1529 78.7285C92.6064 82.7006 87.0687 84.5118 80.5294 84.5118C72.3903 84.5118 66.3108 80.5193 61.5625 74.644C57.9975 70.2328 55.6734 63.2914 55.6734 57.1791C55.6734 49.9845 58.9442 45.4409 63.757 40.7506C68.4117 36.2143 75.2548 34.1075 82.31 34.1075C89.9695 34.1075 95.561 38.3076 100.314 43.6167C104.38 48.158 105.889 53.9605 105.889 60.5537Z" stroke="#EEBD83" stroke-width="0.299919"/>
<path d="M81.9514 36.2833C89.0838 36.2833 94.3899 39.3333 98.7601 44.2917C102.433 48.459 104.108 53.5348 104.108 59.5297C104.108 66.9894 100.417 72.562 94.9822 76.9156C90.9028 80.1837 84.4826 82.3146 78.829 82.3146C72.176 82.3146 67.9745 79.3169 63.6358 74.9039C59.4413 70.6375 57.4927 64.3649 57.4927 57.8966C57.4927 50.8772 61.3756 45.752 66.2871 41.3934C70.4863 37.6671 75.8523 36.2833 81.9514 36.2833Z" stroke="#EEBD83" stroke-width="0.299919"/>
<path d="M87.2482 39.4186C93.5087 41.0856 97.445 44.9996 100.109 50.3695C102.348 54.8816 102.618 59.7234 101.201 64.9808C99.4373 71.5208 94.8804 75.5442 89.0795 78.0919C84.7262 80.0038 78.5858 80.3719 73.6226 79.0503C67.7838 77.4956 64.805 73.8864 62.0387 69.0009C59.366 64.2805 59.138 58.325 60.6677 52.652C62.3268 46.4987 66.9457 42.9124 72.2897 40.2376C76.8557 37.9522 81.8928 37.9926 87.2482 39.4186Z" stroke="#EEBD83" stroke-width="0.299919"/>
<path d="M65.1025 48.9158C67.9819 43.9496 72.2634 41.485 77.5097 40.4415C81.9164 39.5651 86.1546 40.4459 90.3635 42.8657C95.5975 45.8747 98.0181 50.6926 98.8794 56.2365C99.5255 60.3955 98.4284 65.7281 96.1451 69.6663C93.4602 74.2969 89.6633 76.0132 84.8098 77.2555C80.1239 78.4549 74.9345 77.2822 70.3923 74.6708C65.4686 71.8402 63.4392 67.0703 62.3627 61.8863C61.4436 57.4608 62.6381 53.1662 65.1025 48.9158Z" stroke="#EEBD83" stroke-width="0.299919"/>
<path d="M81.6214 42.6821C86.6913 42.6821 90.4628 44.842 93.5717 48.3574C96.1819 51.309 97.3731 54.9045 97.3731 59.1549C97.3731 64.4378 94.7511 68.3856 90.884 71.4732C87.9842 73.7884 83.4171 75.2997 79.3955 75.2997C74.6694 75.2997 71.6847 73.1792 68.5953 70.0473C65.6154 67.0265 64.2286 62.5823 64.2286 57.9946C64.2286 53.026 66.9854 49.3956 70.4832 46.302C73.4661 43.6638 77.2797 42.6821 81.6214 42.6821Z" stroke="#EEBD83" stroke-width="0.299919"/>
<path d="M94.2105 63.3655C93.0821 67.5588 90.4416 70.1978 86.8151 71.9878C83.7718 73.4899 80.5068 73.6754 76.9588 72.7288C72.5515 71.5528 69.8412 68.5055 68.1252 64.617C66.8392 61.703 66.5947 57.5871 67.4902 54.2595C68.5416 50.352 70.973 48.3556 74.2769 46.4952C77.4595 44.703 81.4767 44.5443 85.307 45.5663C89.451 46.672 91.8664 49.7596 93.6705 53.3452C95.2068 56.3987 95.1776 59.7714 94.2105 63.3655Z" stroke="#EEBD83" stroke-width="0.299919"/>
<path d="M86.7131 70.3108C83.3881 72.2224 80.0939 72.2286 76.7151 71.0942C73.8814 70.1427 71.7324 68.2342 70.1146 65.4439C68.1062 61.98 68.3234 58.4027 69.6873 54.9154C70.7086 52.3036 73.1311 49.5877 75.7706 48.0703C78.8679 46.2896 81.6291 46.5534 84.8526 47.4443C87.9539 48.3014 90.5551 50.6931 92.302 53.7061C94.1898 56.962 93.7643 60.3812 92.6443 63.7359C91.6919 66.5888 89.5651 68.6712 86.7131 70.3108Z" stroke="#EEBD83" stroke-width="0.299919"/>
<path d="M80.5122 69.6721C77.3155 69.6721 74.9376 68.3056 72.974 66.0756C71.3286 64.2069 70.5764 61.93 70.5764 59.2333C70.5764 55.8891 72.2279 53.3886 74.6718 51.4289C76.5004 49.9627 79.3846 49.0035 81.924 49.0035C84.9 49.0035 86.7797 50.3423 88.7349 52.3328C90.6122 54.2441 91.489 57.0597 91.489 59.9725C91.489 63.1145 89.7541 65.4135 87.5402 67.3801C85.6617 69.0487 83.2578 69.6721 80.5122 69.6721Z" stroke="#EEBD83" stroke-width="0.299919"/>
<path d="M90.173 59.7956C90.173 62.6005 88.9654 64.687 86.9923 66.4114C85.3401 67.8554 83.3266 68.5159 80.9403 68.5159C77.9831 68.5159 75.7718 67.0668 74.0377 64.9204C72.7413 63.3158 71.8926 60.7834 71.8926 58.554C71.8926 55.9442 73.0748 54.2955 74.8373 52.5773C76.5267 50.9303 79.017 50.16 81.5952 50.16C84.3726 50.16 86.4055 51.6816 88.1467 53.6272C89.6213 55.2748 90.173 57.3839 90.173 59.7956Z" stroke="#EEBD83" stroke-width="0.299919"/>
<path d="M86.6879 53.9156C88.3531 55.5737 88.8793 57.5164 88.7384 59.6972C88.6205 61.5211 87.8248 63.0947 86.4152 64.4983C84.671 66.2352 82.5067 66.6788 80.2061 66.4288C78.4885 66.2422 76.4822 65.2433 75.1576 63.9242C73.6094 62.3826 73.3279 60.7152 73.3481 58.6596C73.3675 56.6946 74.3793 54.7751 75.9029 53.258C77.5401 51.6277 79.6414 51.3314 81.8289 51.4584C83.6758 51.5657 85.2537 52.4874 86.6879 53.9156Z" stroke="#EEBD83" stroke-width="0.299919"/>
<path d="M81.3073 52.8579C83.2122 52.8579 84.6288 53.6669 85.8022 54.9931C86.7818 56.1002 87.2309 57.4497 87.2309 59.0534C87.2309 61.0339 86.2494 62.5165 84.7873 63.6832C83.6978 64.5527 81.9743 65.1237 80.4571 65.1237C78.6881 65.1237 77.5705 64.3342 76.398 63.1463C75.2817 62.0153 74.7569 60.345 74.7569 58.6105C74.7569 56.7533 75.7861 55.3907 77.1145 54.2165C78.2311 53.2295 79.6625 52.8579 81.3073 52.8579Z" stroke="#EEBD83" stroke-width="0.299919"/>
<path d="M85.9148 59.2793C85.9148 60.786 85.2722 61.9066 84.2151 62.8369C83.3347 63.6117 82.2612 63.9676 80.9825 63.9676C79.4076 63.9676 78.2279 63.1919 77.2974 62.0322C76.6058 61.1702 76.1504 59.8042 76.1504 58.602C76.1504 57.2049 76.776 56.3221 77.7251 55.3904C78.6238 54.5082 79.9532 54.0916 81.3373 54.0916C82.8124 54.0916 83.8963 54.9041 84.8344 55.9597C85.6183 56.8417 85.9148 57.9736 85.9148 59.2793Z" stroke="#EEBD83" stroke-width="0.299919"/>
<path d="M80.8463 62.58C79.7352 62.58 78.9094 62.1135 78.2218 61.3428C77.6516 60.7038 77.389 59.9245 77.389 58.9928C77.389 57.851 77.9583 56.994 78.8169 56.3146C79.4522 55.8119 80.4622 55.4793 81.3513 55.4793C82.3788 55.4793 83.0279 55.9315 83.7193 56.626C84.3677 57.2775 84.676 58.2436 84.676 59.2537C84.676 60.3207 84.0808 61.1076 83.2967 61.7949C82.6484 62.3632 81.8146 62.58 80.8463 62.58Z" stroke="#EEBD83" stroke-width="0.299919"/>
<path d="M80.8741 61.1919C80.1772 61.1919 79.6599 60.9039 79.2262 60.4234C78.8701 60.0289 78.705 59.5476 78.705 58.9672C78.705 58.264 79.0585 57.7339 79.602 57.3089C80 56.9976 80.6375 56.7894 81.1987 56.7894C81.8392 56.7894 82.2438 57.0658 82.6836 57.5025C83.0874 57.9035 83.2824 58.5016 83.2824 59.133C83.2824 59.7868 82.9146 60.2729 82.4147 60.7061C82.011 61.0558 81.4892 61.1919 80.8741 61.1919Z" stroke="#EEBD83" stroke-width="0.299919"/>
</g>
<mask id="mask2" mask-type="alpha" maskUnits="userSpaceOnUse" x="59" y="36" width="11" height="43">
<path fill-rule="evenodd" clip-rule="evenodd" d="M59.7595 78.5336V36.8411H64.5631H69.4114V78.5336H64.6078H64.5184H59.7595Z" fill="#FAD297"/>
</mask>
<g mask="url(#mask2)">
<path fill-rule="evenodd" clip-rule="evenodd" d="M59.7595 78.5336V36.8411H64.5631H69.4114V78.5336H64.6078H64.5184H59.7595Z" fill="#FAD297"/>
<path d="M83.9863 66.7044C83.9863 75.7749 80.0724 82.5232 73.7133 88.0789C68.3658 92.7508 61.8528 94.8805 54.1641 94.8805C44.5909 94.8805 37.4409 90.1839 31.8585 83.2765C27.6656 78.0883 24.9332 69.9266 24.9332 62.7395C24.9332 54.2758 28.782 48.9309 34.4389 43.4179C39.9144 38.0818 47.962 35.605 56.2562 35.605C65.2669 35.605 71.8433 40.5466 77.4297 46.7867C82.2123 52.1289 83.9863 58.9538 83.9863 66.7044Z" stroke="#EEBD83" stroke-width="0.299919"/>
<path d="M55.8355 38.1622C64.2248 38.1622 70.4659 41.7503 75.6046 47.5806C79.9251 52.4825 81.8947 58.4529 81.8947 65.502C81.8947 74.277 77.5521 80.8314 71.1625 85.9501C66.3643 89.794 58.8149 92.2995 52.1668 92.2995C44.3395 92.2995 39.3967 88.7716 34.2967 83.5843C29.3623 78.5653 27.0713 71.1878 27.0713 63.5831C27.0713 55.3245 31.6402 49.296 37.4132 44.173C42.3534 39.789 48.6654 38.1622 55.8355 38.1622Z" stroke="#EEBD83" stroke-width="0.299919"/>
<path d="M62.0657 41.8465C69.4301 43.8075 74.0606 48.4123 77.1936 54.727C79.8272 60.0351 80.1448 65.7308 78.4779 71.913C76.4033 79.6071 71.0419 84.3397 64.221 87.3353C59.1001 89.5844 51.8793 90.0169 46.0425 88.4627C39.1723 86.6334 35.6676 82.3856 32.4159 76.6427C29.2712 71.0889 29.004 64.0839 30.8025 57.4138C32.7548 50.1732 38.19 45.9548 44.4715 42.8107C49.8441 40.1216 55.7696 40.1701 62.0657 41.8465Z" stroke="#EEBD83" stroke-width="0.299919"/>
<path d="M36.0158 53.0167C39.4036 47.1738 44.4414 44.2743 50.6114 43.0472C55.7963 42.016 60.7825 43.0527 65.7324 45.8984C71.8909 49.439 74.7381 55.108 75.7509 61.6273C76.5111 66.5203 75.2206 72.792 72.535 77.4238C69.3753 82.8735 64.9058 84.8927 59.2003 86.3531C53.6861 87.7646 47.5817 86.3841 42.2407 83.3135C36.446 79.9821 34.0591 74.3687 32.7936 68.2749C31.7121 63.0668 33.1183 58.0141 36.0158 53.0167Z" stroke="#EEBD83" stroke-width="0.299919"/>
<path d="M55.447 45.6798C61.4129 45.6798 65.851 48.2219 69.5077 52.3569C72.5795 55.8304 73.9808 60.0615 73.9808 65.0608C73.9808 71.2782 70.8945 75.9236 66.3465 79.5548C62.9343 82.2792 57.5622 84.0566 52.8317 84.0566C47.2685 84.0566 43.7552 81.5593 40.1232 77.8774C36.6157 74.3218 34.9849 69.0926 34.9849 63.6975C34.9849 57.8485 38.2308 53.5763 42.3427 49.9396C45.8539 46.8341 50.3419 45.6798 55.447 45.6798Z" stroke="#EEBD83" stroke-width="0.299919"/>
<path d="M70.2649 70.0156C68.9368 74.9513 65.8282 78.0574 61.5618 80.1632C57.9795 81.9314 54.1366 82.1493 49.9627 81.0356C44.7745 79.6513 41.5849 76.0636 39.5664 71.4898C38.0528 68.0601 37.7655 63.2179 38.8189 59.3028C40.057 54.7018 42.921 52.3515 46.8055 50.1641C50.5527 48.0541 55.2802 47.8682 59.7852 49.0702C64.6649 50.3722 67.5075 54.008 69.6286 58.2236C71.4375 61.819 71.4022 65.789 70.2649 70.0156Z" stroke="#EEBD83" stroke-width="0.299919"/>
<path d="M61.4435 78.1912C57.529 80.4417 53.6503 80.4485 49.6748 79.1137C46.3382 77.9935 43.8085 75.7463 41.905 72.4632C39.5401 68.3844 39.7968 64.1725 41.4011 60.07C42.6036 56.9952 45.4542 53.7998 48.5602 52.0141C52.2082 49.9168 55.4608 50.2285 59.2512 51.2761C62.9037 52.2855 65.9648 55.1014 68.0197 58.6456C70.2434 62.4808 69.7409 66.5072 68.4241 70.4515C67.3023 73.8117 64.7977 76.2628 61.4435 78.1912Z" stroke="#EEBD83" stroke-width="0.299919"/>
<path d="M54.1444 77.4445C50.3794 77.4445 47.5787 75.8345 45.2676 73.2098C43.3294 71.0086 42.444 68.3269 42.444 65.1531C42.444 61.2136 44.39 58.2687 47.2658 55.9628C49.4193 54.2359 52.8141 53.1072 55.8032 53.1072C59.3101 53.1072 61.5251 54.686 63.8244 57.027C66.0363 59.2789 67.0678 62.5945 67.0678 66.0216C67.0678 69.7245 65.0228 72.4323 62.4194 74.7448C60.2058 76.7111 57.3742 77.4445 54.1444 77.4445Z" stroke="#EEBD83" stroke-width="0.299919"/>
<path d="M65.5211 65.8139C65.5211 69.1185 64.0978 71.5769 61.775 73.6069C59.8282 75.3083 57.456 76.086 54.6469 76.086C51.1622 76.086 48.5572 74.3779 46.5162 71.8517C44.9889 69.9613 43.99 66.9798 43.99 64.355C43.99 61.2783 45.3848 59.3347 47.4578 57.3138C49.4491 55.3726 52.3824 54.4661 55.4164 54.4661C58.6908 54.4661 61.0859 56.2606 63.1337 58.5487C64.872 60.491 65.5211 62.9762 65.5211 65.8139Z" stroke="#EEBD83" stroke-width="0.299919"/>
<path d="M61.4188 58.8865C63.3816 60.841 64.0015 63.1315 63.8356 65.6998C63.6966 67.8501 62.7583 69.7048 61.0983 71.3577C59.0417 73.4057 56.4899 73.9279 53.7814 73.6335C51.7568 73.4135 49.3941 72.2368 47.8339 70.6832C46.0076 68.8646 45.6763 66.897 45.7002 64.4787C45.723 62.1612 46.9161 59.8996 48.7096 58.1138C50.6411 56.1905 53.1195 55.8423 55.6925 55.9918C57.8712 56.1184 59.7308 57.2057 61.4188 58.8865Z" stroke="#EEBD83" stroke-width="0.299919"/>
<path d="M55.0782 57.6363C57.3253 57.6363 58.9965 58.5912 60.3792 60.1539C61.5351 61.4602 62.0644 63.0523 62.0644 64.9419C62.0644 67.2791 60.9056 69.0281 59.1834 70.4023C57.8982 71.4279 55.8673 72.1005 54.0793 72.1005C51.9905 72.1005 50.6711 71.1672 49.2913 69.7693C47.9735 68.4341 47.3555 66.4643 47.3555 64.4215C47.3555 62.2283 48.5715 60.6207 50.1345 59.2391C51.4529 58.0738 53.1418 57.6363 55.0782 57.6363Z" stroke="#EEBD83" stroke-width="0.299919"/>
<path d="M60.5184 65.207C60.5184 66.9864 59.7589 68.3098 58.5124 69.4068C57.4724 70.322 56.2046 70.7419 54.6969 70.7419C52.8363 70.7419 51.4433 69.8249 50.3466 68.458C49.5299 67.44 48.9932 65.8292 48.9932 64.4113C48.9932 62.7595 49.734 61.7159 50.8512 60.6191C51.9134 59.5763 53.4828 59.0855 55.1138 59.0855C56.858 59.0855 58.1381 60.0468 59.2424 61.2893C60.1692 62.332 60.5184 63.6691 60.5184 65.207Z" stroke="#EEBD83" stroke-width="0.299919"/>
</g>
<mask id="mask3" mask-type="alpha" maskUnits="userSpaceOnUse" x="50" y="36" width="10" height="45">
<path fill-rule="evenodd" clip-rule="evenodd" d="M50.1082 80.8919V39.1103H58.8884L59.6034 36.8411H59.7601V78.5336H59.3352L58.8437 80.8919H50.1082Z" fill="#F3D59B"/>
</mask>
<g mask="url(#mask3)">
<path fill-rule="evenodd" clip-rule="evenodd" d="M50.1082 80.8919V39.1103H58.8884L59.6034 36.8411H59.7601V78.5336H59.3352L58.8437 80.8919H50.1082Z" fill="#FCCF8E"/>
<path d="M72.9138 54.8962C72.9138 63.4807 69.2098 69.8673 63.1909 75.1257C58.1301 79.5472 51.9661 81.5629 44.6886 81.5629C35.6286 81.5629 28.8617 77.1183 23.5778 70.5802C19.6095 65.6701 17.0233 57.9451 17.0233 51.1426C17.0233 43.133 20.6653 38.0749 26.0201 32.8563C31.2019 27.8064 38.8185 25.462 46.6693 25.462C55.1965 25.462 61.4204 30.1382 66.7086 36.0452C71.2346 41.1008 72.9138 47.5598 72.9138 54.8962Z" stroke="#EEBD83" stroke-width="0.299919"/>
<path d="M46.2699 27.8829C54.2094 27.8829 60.116 31.2784 64.9796 36.7967C69.0684 41.4358 70.9326 47.0861 70.9326 53.7579C70.9326 62.0622 66.823 68.2654 60.7752 73.1103C56.2342 76.7481 49.0889 79.1196 42.7967 79.1196C35.3896 79.1196 30.7121 75.7814 25.8845 70.8712C21.2149 66.1215 19.0464 59.1394 19.0464 51.9413C19.0464 44.1261 23.3698 38.4209 28.8346 33.5714C33.5096 29.4227 39.4831 27.8829 46.2699 27.8829Z" stroke="#EEBD83" stroke-width="0.299919"/>
<path d="M52.1667 31.3704C59.1362 33.2262 63.5182 37.5838 66.4835 43.5604C68.9758 48.5836 69.2765 53.9737 67.6988 59.825C65.7355 67.1062 60.662 71.585 54.2062 74.4203C49.3599 76.5487 42.5257 76.9582 37.0015 75.4872C30.5004 73.7561 27.1839 69.7369 24.1059 64.3008C21.1301 59.0452 20.877 52.4158 22.5792 46.1025C24.4266 39.251 29.5697 35.2588 35.5158 32.2826C40.5997 29.738 46.2073 29.7835 52.1667 31.3704Z" stroke="#EEBD83" stroke-width="0.299919"/>
<path d="M27.5141 41.942C30.7199 36.4128 35.4871 33.6689 41.3265 32.5075C46.233 31.5317 50.9515 32.5126 55.6363 35.2059C61.4639 38.5563 64.1585 43.9207 65.1171 50.091C65.8364 54.7213 64.6151 60.657 62.0735 65.0406C59.0837 70.1972 54.8549 72.108 49.4542 73.4904C44.2365 74.8259 38.4595 73.5198 33.4043 70.6135C27.9213 67.4613 25.6623 62.1498 24.4645 56.3816C23.4411 51.4535 24.7716 46.6721 27.5141 41.942Z" stroke="#EEBD83" stroke-width="0.299919"/>
<path d="M45.9026 35.0002C51.5479 35.0002 55.7475 37.4055 59.2081 41.3188C62.1148 44.6056 63.4409 48.6092 63.4409 53.3405C63.4409 59.2235 60.5207 63.6193 56.2164 67.056C52.9876 69.6339 47.9035 71.3161 43.4267 71.3161C38.163 71.3161 34.8389 68.9536 31.401 65.4686C28.0824 62.1043 26.5389 57.156 26.5389 52.0499C26.5389 46.5159 29.6097 42.4734 33.5019 39.031C36.824 36.0928 41.0707 35.0002 45.9026 35.0002Z" stroke="#EEBD83" stroke-width="0.299919"/>
<path d="M59.9234 58.0287C58.6668 62.6987 55.7257 65.6376 51.6883 67.6305C48.2989 69.3034 44.6628 69.5097 40.7128 68.4558C35.8041 67.1461 32.786 63.7518 30.8757 59.4232C29.4436 56.178 29.1716 51.5957 30.1685 47.8909C31.3398 43.538 34.049 41.3144 37.7257 39.244C41.2708 37.2477 45.7442 37.0715 50.0078 38.2091C54.6242 39.4408 57.3139 42.8805 59.3216 46.8707C61.033 50.2722 60.9999 54.0284 59.9234 58.0287Z" stroke="#EEBD83" stroke-width="0.299919"/>
<path d="M51.5755 65.7641C47.8719 67.8933 44.2024 67.8999 40.4404 66.6368C37.2837 65.5769 34.8903 63.4509 33.089 60.3441C30.8517 56.4854 31.0943 52.5006 32.6126 48.6182C33.7502 45.7091 36.4476 42.6853 39.3867 40.9956C42.8376 39.0116 45.9144 39.3062 49.5019 40.2977C52.9572 41.2526 55.8537 43.9167 57.7984 47.2708C59.9019 50.8987 59.4269 54.7078 58.1806 58.4412C57.1194 61.6198 54.75 63.939 51.5755 65.7641Z" stroke="#EEBD83" stroke-width="0.299919"/>
<path d="M44.6694 65.056C41.1078 65.056 38.4583 63.5332 36.2715 61.0497C34.4381 58.9675 33.6004 56.4306 33.6004 53.4276C33.6004 49.7011 35.4411 46.9152 38.1623 44.7332C40.1995 43.0996 43.4116 42.0316 46.2398 42.0316C49.5567 42.0316 51.6517 43.5244 53.8279 45.74C55.92 47.87 56.8962 51.0068 56.8962 54.2498C56.8962 57.752 54.9622 60.3135 52.4981 62.5022C50.4044 64.362 47.7259 65.056 44.6694 65.056Z" stroke="#EEBD83" stroke-width="0.299919"/>
<path d="M55.4323 54.0533C55.4323 57.179 54.0862 59.5044 51.8885 61.425C50.0472 63.0343 47.8033 63.7701 45.1455 63.7701C41.8496 63.7701 39.3854 62.1546 37.4543 59.7644C36.0096 57.9762 35.0645 55.1554 35.0645 52.6722C35.0645 49.7625 36.3832 47.9245 38.3451 46.0119C40.2283 44.1759 43.0031 43.3182 45.874 43.3182C48.9705 43.3182 51.2361 45.015 53.1741 47.1805C54.8181 49.0174 55.4323 51.368 55.4323 54.0533Z" stroke="#EEBD83" stroke-width="0.299919"/>
<path d="M51.551 47.5006C53.4073 49.349 53.9937 51.515 53.8367 53.9447C53.7052 55.9782 52.818 57.7323 51.2476 59.296C49.3028 61.2326 46.8897 61.7267 44.3271 61.4483C42.4123 61.2402 40.1772 60.1271 38.7013 58.6574C36.9745 56.938 36.6611 55.0778 36.6836 52.7892C36.7052 50.5979 37.8334 48.4587 39.5303 46.769C41.3565 44.9506 43.7 44.621 46.1351 44.7624C48.195 44.8821 49.9538 45.9102 51.551 47.5006Z" stroke="#EEBD83" stroke-width="0.299919"/>
<path d="M45.5537 46.3195C47.6784 46.3195 49.2585 47.2222 50.5663 48.7002C51.6591 49.9353 52.1597 51.4405 52.1597 53.2279C52.1597 55.4374 51.0643 57.091 49.4352 58.391C48.22 59.3607 46.2991 59.997 44.6081 59.997C42.6337 59.997 41.3865 59.1152 40.0809 57.7924C38.8352 56.5303 38.2505 54.6676 38.2505 52.7352C38.2505 50.6622 39.3997 49.1423 40.8787 47.8349C42.1249 46.7334 43.7217 46.3195 45.5537 46.3195Z" stroke="#EEBD83" stroke-width="0.299919"/>
<path d="M50.6962 53.4788C50.6962 55.1606 49.9785 56.4114 48.7997 57.4488C47.8169 58.3138 46.6186 58.7107 45.1929 58.7107C43.4345 58.7107 42.1178 57.8443 41.0806 56.5515C40.3087 55.5894 39.8011 54.0662 39.8011 52.7255C39.8011 51.1648 40.5006 50.1787 41.5577 49.141C42.5614 48.1557 44.0449 47.6915 45.5875 47.6915C47.2354 47.6915 48.4453 48.5995 49.4902 49.7751C50.3658 50.7604 50.6962 52.024 50.6962 53.4788Z" stroke="#EEBD83" stroke-width="0.299919"/>
</g>
<mask id="mask4" mask-type="alpha" maskUnits="userSpaceOnUse" x="40" y="36" width="11" height="45">
<path fill-rule="evenodd" clip-rule="evenodd" d="M40.501 79.2223V39.9329L43.6062 36.8408H46.0638L46.5554 39.1101H50.1082V80.8917H47.4044L47.0022 78.5334H43.4274C43.4274 78.5334 42.5922 80.0396 42.1763 80.8027L40.501 79.2223Z" fill="#FAD297"/>
</mask>
<g mask="url(#mask4)">
<path fill-rule="evenodd" clip-rule="evenodd" d="M40.501 79.2223V39.9329L43.6062 36.8408H46.0638L46.5554 39.1101H50.1082V80.8917H47.4044L47.0022 78.5334H43.4274C43.4274 78.5334 42.5922 80.0396 42.1763 80.8027L40.501 79.2223Z" fill="#FAD297"/>
<path d="M85.8712 62.0037C85.8712 70.1287 82.3657 76.1735 76.6684 81.1511C71.8785 85.3359 66.0443 87.2438 59.1556 87.2438C50.5807 87.2438 44.1759 83.0373 39.1741 76.8483C35.4182 72.201 32.97 64.8887 32.97 58.4498C32.97 50.8695 36.4165 46.0824 41.4858 41.142C46.39 36.3626 53.5992 34.1434 61.0309 34.1434C69.1011 34.1434 74.992 38.5689 79.9982 44.1609C84.2817 48.9456 85.8712 55.0588 85.8712 62.0037Z" stroke="#EEBD83" stroke-width="0.299919"/>
<path d="M60.6527 36.435C68.1672 36.435 73.7574 39.6485 78.3611 44.8718C82.2309 49.2625 83.9954 54.6101 83.9954 60.9255C83.9954 68.7849 80.1062 74.6559 74.3814 79.242C70.0836 82.6851 63.3201 84.9299 57.3643 84.9299C50.3544 84.9299 45.9276 81.771 41.3576 77.1227C36.9382 72.6276 34.8856 66.0192 34.8856 59.2055C34.8856 51.8094 38.9769 46.4097 44.1503 41.8188C48.5746 37.8926 54.2281 36.435 60.6527 36.435Z" stroke="#EEBD83" stroke-width="0.299919"/>
<path d="M66.2333 39.7367C72.8293 41.493 76.9767 45.617 79.7834 51.274C82.142 56.028 82.4268 61.1293 80.9334 66.6678C79.0755 73.5586 74.274 77.7975 68.1631 80.4813C63.5765 82.4957 57.1078 82.8834 51.879 81.4911C45.7268 79.8529 42.5882 76.0496 39.6744 70.9036C36.8582 65.9299 36.6183 59.6554 38.2297 53.6794C39.9779 47.1957 44.8449 43.4172 50.4738 40.5998C55.285 38.1917 60.592 38.2346 66.2333 39.7367Z" stroke="#EEBD83" stroke-width="0.299919"/>
<path d="M42.9013 49.7426C45.9352 44.51 50.4466 41.9132 55.9736 40.814C60.6168 39.8905 65.0823 40.8187 69.5165 43.3679C75.0314 46.5385 77.5817 51.615 78.489 57.4554C79.1698 61.8375 78.014 67.4555 75.6084 71.6045C72.7792 76.484 68.7778 78.2924 63.6654 79.601C58.7278 80.8648 53.2603 79.629 48.4753 76.878C43.2869 73.8952 41.1488 68.8689 40.0149 63.4085C39.0465 58.7451 40.3053 54.2201 42.9013 49.7426Z" stroke="#EEBD83" stroke-width="0.299919"/>
<path d="M60.3047 43.1737C65.647 43.1737 69.621 45.4498 72.8964 49.1535C75.6469 52.2637 76.9019 56.0523 76.9019 60.5304C76.9019 66.0973 74.1388 70.2571 70.0647 73.51C67.0093 75.9495 62.1975 77.5417 57.9605 77.5417C52.9799 77.5417 49.8346 75.3066 46.5802 72.0076C43.44 68.8243 41.9791 64.1415 41.9791 59.3084C41.9791 54.0722 44.8845 50.2468 48.5689 46.9881C51.7124 44.2079 55.731 43.1737 60.3047 43.1737Z" stroke="#EEBD83" stroke-width="0.299919"/>
<path d="M73.5716 64.9671C72.3825 69.3861 69.5997 72.167 65.7787 74.053C62.5716 75.636 59.131 75.8313 55.3928 74.8339C50.7481 73.5946 47.8922 70.3831 46.0842 66.2863C44.7291 63.2156 44.4715 58.8789 45.415 55.3728C46.5232 51.2545 49.086 49.1506 52.5664 47.1908C55.9206 45.302 60.1537 45.135 64.1891 46.2117C68.5566 47.377 71.1019 50.6313 73.0023 54.4084C74.6215 57.6266 74.5904 61.1808 73.5716 64.9671Z" stroke="#EEBD83" stroke-width="0.299919"/>
<path d="M65.6719 72.2865C62.1677 74.3011 58.6959 74.3075 55.1357 73.1121C52.1492 72.1094 49.8845 70.098 48.1798 67.1578C46.0631 63.5071 46.2923 59.7369 47.7293 56.0626C48.8057 53.3101 51.3582 50.4485 54.1396 48.8495C57.4042 46.9726 60.3147 47.251 63.7105 48.1895C66.9794 49.0929 69.7203 51.6135 71.5608 54.7879C73.5507 58.2199 73.1018 61.8236 71.922 65.3576C70.9181 68.3646 68.6765 70.5591 65.6719 72.2865Z" stroke="#EEBD83" stroke-width="0.299919"/>
<path d="M59.1369 71.6152C55.7675 71.6152 53.2611 70.1747 51.1918 67.8247C49.4574 65.855 48.6648 63.4551 48.6648 60.6134C48.6648 57.0882 50.4058 54.4527 52.981 52.3877C54.9083 50.8423 57.9477 49.8316 60.6238 49.8316C63.7611 49.8316 65.7427 51.2433 67.8025 53.3404C69.7814 55.3552 70.7053 58.3228 70.7053 61.3918C70.7053 64.7044 68.8762 67.1276 66.5438 69.1993C64.5635 70.9584 62.0297 71.6152 59.1369 71.6152Z" stroke="#EEBD83" stroke-width="0.299919"/>
<path d="M69.3194 61.2056C69.3194 64.1623 68.0463 66.3619 65.9668 68.1792C64.2251 69.7014 62.1026 70.3975 59.5878 70.3975C56.4703 70.3975 54.1393 68.8697 52.312 66.6079C50.9454 64.9164 50.0511 62.2475 50.0511 59.898C50.0511 57.1462 51.2978 55.408 53.1547 53.5977C54.9359 51.8613 57.5608 51.0496 60.2775 51.0496C63.206 51.0496 65.349 52.6542 67.1834 54.7038C68.7381 56.4411 69.3194 58.6644 69.3194 61.2056Z" stroke="#EEBD83" stroke-width="0.299919"/>
<path d="M65.6469 55.0071C67.4025 56.7553 67.9573 58.8037 67.8087 61.1023C67.6844 63.0253 66.8454 64.6844 65.3597 66.1638C63.5205 67.9952 61.2385 68.4627 58.8139 68.1993C57.003 68.0025 54.8884 66.9495 53.4922 65.5592C51.8595 63.9334 51.5628 62.1748 51.5842 60.0089C51.6046 57.9368 52.6715 55.9133 54.2771 54.3145C56.0037 52.5952 58.2197 52.2831 60.5243 52.417C62.472 52.5301 64.1356 53.5022 65.6469 55.0071Z" stroke="#EEBD83" stroke-width="0.299919"/>
</g>
<path fill-rule="evenodd" clip-rule="evenodd" d="M49.7952 34.7051H48.0525L43.6287 36.8409H46.0863L46.5779 39.1102H58.9109L59.6258 36.8409H64.5858H69.5458L70.2608 39.1102H82.5938L83.0853 36.8409H85.543L81.1192 34.7051H79.3765L78.9297 36.4849H69.4216L68.7862 34.7051H64.5858H60.3855L59.7536 36.4849H50.242L49.7952 34.7051Z" fill="#FFE5B2"/>
<path d="M69.5458 36.8409H59.6257L60.3854 34.7051H68.7861L69.5458 36.8409Z" fill="#FFE5B2"/>
<path d="M46.5777 39.1102L46.0862 36.8409L49.795 34.7051L50.2419 36.4849L46.5777 39.1102Z" fill="#EED198"/>
<path d="M82.5934 39.1102L83.085 36.8409L79.3761 34.7051L78.9293 36.4849L82.5934 39.1102Z" fill="#EED198"/>
<g filter="url(#filter0_di)">
<path d="M81.2847 72.9412V58.2966H77.7406V63.9243H73.2167V58.2966H69.6726V72.9412H73.2167V67.2926H77.7406V72.9412H81.2847Z" fill="#612401"/>
</g>
<g filter="url(#filter1_di)">
<path d="M63.7384 60.8316L69.6724 46.187H65.7372L62.7181 54.3252L59.6782 46.187H57.5753L54.5354 54.3252L51.5163 46.187H47.5811L53.5151 60.8316H55.6389L58.6163 53.3838L61.6146 60.8316H63.7384Z" fill="#612401"/>
</g>
<defs>
<filter id="filter0_di" x="68.532" y="57.1561" width="13.8933" height="16.9257" filterUnits="userSpaceOnUse" color-interpolation-filters="sRGB">
<feFlood flood-opacity="0" result="BackgroundImageFix"/>
<feColorMatrix in="SourceAlpha" type="matrix" values="0 0 0 0 0 0 0 0 0 0 0 0 0 0 0 0 0 0 127 0"/>
<feOffset/>
<feGaussianBlur stdDeviation="0.570287"/>
<feColorMatrix type="matrix" values="0 0 0 0 0.156863 0 0 0 0 0.0392157 0 0 0 0 0 0 0 0 0.8 0"/>
<feBlend mode="normal" in2="BackgroundImageFix" result="effect1_dropShadow"/>
<feBlend mode="normal" in="SourceGraphic" in2="effect1_dropShadow" result="shape"/>
<feColorMatrix in="SourceAlpha" type="matrix" values="0 0 0 0 0 0 0 0 0 0 0 0 0 0 0 0 0 0 127 0" result="hardAlpha"/>
<feOffset/>
<feGaussianBlur stdDeviation="1.90096"/>
<feComposite in2="hardAlpha" operator="arithmetic" k2="-1" k3="1"/>
<feColorMatrix type="matrix" values="0 0 0 0 0.0333333 0 0 0 0 0 0 0 0 0 0 0 0 0 1 0"/>
<feBlend mode="normal" in2="shape" result="effect2_innerShadow"/>
</filter>
<filter id="filter1_di" x="46.4405" y="45.0464" width="24.3725" height="16.9257" filterUnits="userSpaceOnUse" color-interpolation-filters="sRGB">
<feFlood flood-opacity="0" result="BackgroundImageFix"/>
<feColorMatrix in="SourceAlpha" type="matrix" values="0 0 0 0 0 0 0 0 0 0 0 0 0 0 0 0 0 0 127 0"/>
<feOffset/>
<feGaussianBlur stdDeviation="0.570287"/>
<feColorMatrix type="matrix" values="0 0 0 0 0.156863 0 0 0 0 0.0392157 0 0 0 0 0 0 0 0 0.8 0"/>
<feBlend mode="normal" in2="BackgroundImageFix" result="effect1_dropShadow"/>
<feBlend mode="normal" in="SourceGraphic" in2="effect1_dropShadow" result="shape"/>
<feColorMatrix in="SourceAlpha" type="matrix" values="0 0 0 0 0 0 0 0 0 0 0 0 0 0 0 0 0 0 127 0" result="hardAlpha"/>
<feOffset/>
<feGaussianBlur stdDeviation="1.90096"/>
<feComposite in2="hardAlpha" operator="arithmetic" k2="-1" k3="1"/>
<feColorMatrix type="matrix" values="0 0 0 0 0.0333333 0 0 0 0 0 0 0 0 0 0 0 0 0 1 0"/>
<feBlend mode="normal" in2="shape" result="effect2_innerShadow"/>
</filter>
<linearGradient id="paint0_linear" x1="28.6135" y1="0" x2="28.6135" y2="68.6043" gradientUnits="userSpaceOnUse">
<stop stop-color="#D0D0D0"/>
<stop offset="1" stop-color="#6B6B6B"/>
</linearGradient>
<linearGradient id="paint1_linear" x1="36.6143" y1="22.6694" x2="36.6143" y2="91.2738" gradientUnits="userSpaceOnUse">
<stop stop-color="#9DDE5C"/>
<stop offset="1" stop-color="#3FA349"/>
</linearGradient>
</defs>
</svg>
