<svg width="22" height="22" viewBox="0 0 22 22" fill="none" xmlns="http://www.w3.org/2000/svg">
<path d="M17.522 2.7015C15.7799 0.95941 13.4637 0 11.0001 0C8.53645 0 6.22025 0.959367 4.47807 2.7015C2.73602 4.44354 1.77661 6.75965 1.77661 9.22328C1.77661 11.6869 2.73602 14.0031 4.47807 15.7452L10.5443 21.8112C10.6702 21.9371 10.8352 22 11.0001 22C11.165 22 11.33 21.9371 11.4558 21.8112L17.5219 15.7452C19.264 14.0031 20.2233 11.6869 20.2234 9.22332C20.2233 6.75961 19.264 4.4435 17.522 2.7015ZM13.8967 12.1198C13.123 12.8935 12.0943 13.3196 11.0001 13.3196C9.90591 13.3196 8.87724 12.8936 8.10358 12.1199C7.32984 11.3462 6.90376 10.3175 6.90376 9.22328C6.90376 8.12912 7.32984 7.10044 8.10358 6.3267C8.87724 5.553 9.90591 5.12692 11.0001 5.12692C12.0943 5.12692 13.123 5.553 13.8967 6.3267C14.6704 7.10036 15.0965 8.12903 15.0965 9.22324C15.0965 10.3174 14.6704 11.3462 13.8967 12.1198Z" fill="#429F36"/>
</svg>
