<svg width="60" height="60" viewBox="0 0 60 60" fill="none" xmlns="http://www.w3.org/2000/svg">
<path d="M58.2422 17.6953H52.9688V12.4951C52.9688 9.58603 50.6026 7.14844 47.6953 7.14844H5.27344C2.36572 7.14844 0 9.51416 0 12.4219V44.0625C0 48.9088 3.94272 52.8516 8.78906 52.8516H51.2109C56.0573 52.8516 60 48.9088 60 44.0625V19.4531C60 18.4822 59.2131 17.6953 58.2422 17.6953ZM45.9375 12.4219C45.9375 11.4368 46.7468 10.6375 47.7461 10.665C48.6873 10.6906 49.4531 11.5118 49.4531 12.4951V38.7891H45.9375V12.4219ZM3.51562 44.0625V12.4219C3.51562 11.4528 4.30435 10.6641 5.27344 10.6641H42.7213C42.5249 11.2207 42.4219 11.8126 42.4219 12.4219V44.0625C42.4219 46.0396 43.0783 47.8661 44.1843 49.3359H8.78906C5.88135 49.3359 3.51562 46.9702 3.51562 44.0625ZM56.4844 44.0625C56.4844 46.9702 54.1187 49.3359 51.2109 49.3359C48.3032 49.3359 45.9375 46.9702 45.9375 44.0625V42.3047H51.2109C52.1819 42.3047 52.9688 41.5178 52.9688 40.5469V21.2109H56.4844V44.0625Z" fill="url(#paint0_linear)"/>
<path d="M37.1484 14.1797H8.78906C7.81815 14.1797 7.03125 14.9666 7.03125 15.9375C7.03125 16.9084 7.81815 17.6953 8.78906 17.6953H37.1484C38.1194 17.6953 38.9062 16.9084 38.9062 15.9375C38.9062 14.9666 38.1194 14.1797 37.1484 14.1797Z" fill="url(#paint1_linear)"/>
<path d="M37.1484 21.2109H8.78906C7.81815 21.2109 7.03125 21.9978 7.03125 22.9688C7.03125 23.9397 7.81815 24.7266 8.78906 24.7266H37.1484C38.1194 24.7266 38.9062 23.9397 38.9062 22.9688C38.9062 21.9978 38.1194 21.2109 37.1484 21.2109Z" fill="url(#paint2_linear)"/>
<path d="M23.0859 28.2422H8.90625C7.93533 28.2422 7.14844 29.0291 7.14844 30V44.0625C7.14844 45.0334 7.93533 45.8203 8.90625 45.8203H23.0859C24.0569 45.8203 24.8438 45.0334 24.8438 44.0625V30C24.8438 29.0291 24.0569 28.2422 23.0859 28.2422ZM21.3281 42.3047H10.6641V31.7578H21.3281V42.3047Z" fill="url(#paint3_linear)"/>
<path d="M37.1484 28.2422H30C29.0291 28.2422 28.2422 29.0291 28.2422 30C28.2422 30.9709 29.0291 31.7578 30 31.7578H37.1484C38.1194 31.7578 38.9062 30.9709 38.9062 30C38.9062 29.0291 38.1194 28.2422 37.1484 28.2422Z" fill="url(#paint4_linear)"/>
<path d="M37.1484 35.2734H30C29.0291 35.2734 28.2422 36.0603 28.2422 37.0312C28.2422 38.0022 29.0291 38.7891 30 38.7891H37.1484C38.1194 38.7891 38.9062 38.0022 38.9062 37.0312C38.9062 36.0603 38.1194 35.2734 37.1484 35.2734Z" fill="url(#paint5_linear)"/>
<path d="M37.1484 42.3047H30C29.0291 42.3047 28.2422 43.0916 28.2422 44.0625C28.2422 45.0334 29.0291 45.8203 30 45.8203H37.1484C38.1194 45.8203 38.9062 45.0334 38.9062 44.0625C38.9062 43.0916 38.1194 42.3047 37.1484 42.3047Z" fill="url(#paint6_linear)"/>
<defs>
<linearGradient id="paint0_linear" x1="0" y1="7.14844" x2="44.061" y2="64.9926" gradientUnits="userSpaceOnUse">
<stop stop-color="#FAD297"/>
<stop offset="1" stop-color="#E2B37C"/>
</linearGradient>
<linearGradient id="paint1_linear" x1="0" y1="7.14844" x2="44.061" y2="64.9926" gradientUnits="userSpaceOnUse">
<stop stop-color="#FAD297"/>
<stop offset="1" stop-color="#E2B37C"/>
</linearGradient>
<linearGradient id="paint2_linear" x1="0" y1="7.14844" x2="44.061" y2="64.9926" gradientUnits="userSpaceOnUse">
<stop stop-color="#FAD297"/>
<stop offset="1" stop-color="#E2B37C"/>
</linearGradient>
<linearGradient id="paint3_linear" x1="0" y1="7.14844" x2="44.061" y2="64.9926" gradientUnits="userSpaceOnUse">
<stop stop-color="#FAD297"/>
<stop offset="1" stop-color="#E2B37C"/>
</linearGradient>
<linearGradient id="paint4_linear" x1="0" y1="7.14844" x2="44.061" y2="64.9926" gradientUnits="userSpaceOnUse">
<stop stop-color="#FAD297"/>
<stop offset="1" stop-color="#E2B37C"/>
</linearGradient>
<linearGradient id="paint5_linear" x1="0" y1="7.14844" x2="44.061" y2="64.9926" gradientUnits="userSpaceOnUse">
<stop stop-color="#FAD297"/>
<stop offset="1" stop-color="#E2B37C"/>
</linearGradient>
<linearGradient id="paint6_linear" x1="0" y1="7.14844" x2="44.061" y2="64.9926" gradientUnits="userSpaceOnUse">
<stop stop-color="#FAD297"/>
<stop offset="1" stop-color="#E2B37C"/>
</linearGradient>
</defs>
</svg>
