<svg width="24" height="24" viewBox="0 0 24 24" fill="none" xmlns="http://www.w3.org/2000/svg">
<path d="M19 0.999985V3.663C17.559 4.09599 16.5 5.42002 16.5 6.99998C16.5 8.57995 17.559 9.903 19 10.337V23C19 23.552 19.448 24 20 24C20.552 24 21 23.552 21 23V10.337C22.441 9.90403 23.5 8.58 23.5 7.00003C23.5 5.42006 22.441 4.09702 21 3.66305V1.00003C21 0.447048 20.552 4.76837e-05 20 4.76837e-05C19.448 4.76837e-05 19 0.447001 19 0.999985ZM21.5 6.99998C21.5 7.827 20.827 8.49998 20 8.49998C19.173 8.49998 18.5 7.827 18.5 6.99998C18.5 6.17297 19.173 5.49998 20 5.49998C20.827 5.49998 21.5 6.17302 21.5 6.99998Z" fill="black"/>
<path d="M2.99998 0.999985V3.663C1.559 4.09702 0.5 5.42002 0.5 6.99998C0.5 8.57995 1.559 9.903 2.99998 10.337L2.99998 23C2.99998 23.552 3.44797 24 3.99997 24C4.55197 24 4.99995 23.552 4.99995 23L4.99995 10.337C6.44098 9.903 7.49998 8.58 7.49998 6.99998C7.49998 5.41997 6.44098 4.09697 5 3.663L5 0.999985C5 0.447001 4.55202 0 4.00002 0C3.44802 0 2.99998 0.447001 2.99998 0.999985ZM5.49997 6.99998C5.49997 7.827 4.82698 8.49998 3.99997 8.49998C3.17295 8.49998 2.49997 7.827 2.49997 6.99998C2.49997 6.17297 3.17295 5.49998 3.99997 5.49998C4.82698 5.49998 5.49997 6.17302 5.49997 6.99998Z" fill="black"/>
<path d="M11.0001 0.999985L11.0001 13.663C9.55906 14.097 8.50006 15.42 8.50006 17C8.50006 18.5799 9.55906 19.903 11.0001 20.337V23C11.0001 23.552 11.448 24 12 24C12.552 24 13 23.552 13 23V20.337C14.441 19.903 15.5 18.58 15.5 17C15.5 15.42 14.441 14.097 13 13.663L13 1.00003C13 0.447048 12.552 4.76837e-05 12 4.76837e-05C11.448 0 11.0001 0.447001 11.0001 0.999985ZM13.5 17C13.5 17.827 12.8271 18.5 12 18.5C11.173 18.5 10.5 17.827 10.5 17C10.5 16.173 11.173 15.5 12 15.5C12.8271 15.5 13.5 16.173 13.5 17Z" fill="black"/>
</svg>
