<svg width="16" height="16" viewBox="0 0 16 16" fill="none" xmlns="http://www.w3.org/2000/svg">
<g clip-path="url(#clip0)">
<path d="M9.6002 0H6.39979C3.31151 0 0.799072 2.51244 0.799072 5.60072V8.00103C0.799072 10.1692 2.04951 12.1368 3.99948 13.0623V15.7353C3.99948 15.9674 4.28982 16.0888 4.45476 15.9239L6.77692 13.6018H9.60017C12.6884 13.6018 15.2009 11.0893 15.2009 8.00103V5.60072C15.2009 2.51244 12.6884 0 9.6002 0Z" fill="#59267C"/>
<path d="M6.5491 5.74495L6.80985 5.48417L6.81013 5.48389L6.54907 5.74492L6.5491 5.74495Z" fill="#E5E5E5"/>
<path d="M9.45007 8.12414L9.18677 8.38745L9.18681 8.3875L9.45012 8.12419L9.45007 8.12414Z" fill="#E5E5E5"/>
<path d="M8.53347 4.53394C8.38619 4.53394 8.26678 4.65334 8.26678 4.80062C8.26678 4.9479 8.38619 5.06731 8.53347 5.06731C9.12172 5.06731 9.60028 5.54587 9.60028 6.13412C9.60028 6.27944 9.72166 6.40081 9.86697 6.40081C10.0123 6.40081 10.1337 6.27944 10.1337 6.13412C10.1337 5.25175 9.41585 4.53394 8.53347 4.53394Z" fill="white"/>
<path d="M8.53345 3.46729C8.43479 3.46729 8.33523 3.47275 8.23748 3.48354C8.09107 3.49969 7.98548 3.63147 8.00163 3.77791C8.01779 3.92435 8.14985 4.02966 8.29601 4.01375C8.37438 4.0051 8.45426 4.00069 8.53345 4.00069C9.70992 4.00069 10.667 4.95782 10.667 6.13428C10.667 6.2135 10.6626 6.29338 10.654 6.37175C10.638 6.51616 10.7454 6.65022 10.8898 6.66613C11.0343 6.68203 11.1682 6.57475 11.1842 6.43028C11.195 6.33253 11.2004 6.23297 11.2004 6.13428C11.2004 4.66372 10.004 3.46729 8.53345 3.46729Z" fill="white"/>
<path d="M8.53398 2.40039C8.43867 2.40039 8.34214 2.40402 8.24714 2.41123C8.10026 2.42236 7.9902 2.55048 8.00132 2.69733C8.01242 2.8442 8.14098 2.95427 8.28742 2.94314C8.36907 2.93692 8.45204 2.9338 8.53398 2.9338C10.2987 2.9338 11.7344 4.36948 11.7344 6.1342C11.7344 6.38389 11.7056 6.63245 11.6488 6.87295C11.6162 7.01077 11.701 7.15402 11.8377 7.19145C11.9815 7.23083 12.1336 7.14067 12.1679 6.99564C12.2342 6.71498 12.2678 6.42517 12.2678 6.1342C12.2678 4.07536 10.5928 2.40039 8.53398 2.40039Z" fill="white"/>
<path d="M12.4998 10.1717C12.3097 10.7072 11.5551 11.1513 10.9532 11.281C10.5414 11.3685 10.0035 11.4383 8.19289 10.6895C5.87688 9.73249 4.38542 7.38511 4.26917 7.2328C4.15786 7.0805 3.33331 5.98984 3.33331 4.86184C3.33331 3.73383 3.90764 3.18457 4.13914 2.94875C4.32927 2.75518 4.64352 2.66675 4.94496 2.66675C5.04249 2.66675 5.13017 2.67166 5.20897 2.67559C5.44048 2.68542 5.55672 2.69917 5.70941 3.06371C5.89954 3.52061 6.36255 4.64862 6.41771 4.76456C6.47386 4.8805 6.53002 5.03772 6.45121 5.19002C6.37732 5.34723 6.3123 5.41699 6.19606 5.55063C6.07982 5.68426 5.96948 5.78644 5.85324 5.9299C5.74685 6.05469 5.62666 6.18832 5.76064 6.41923C5.89462 6.64522 6.35762 7.39886 7.03932 8.00413C7.91903 8.78528 8.63225 9.03486 8.8874 9.14098C9.07753 9.21959 9.3041 9.20092 9.443 9.05353C9.61934 8.86389 9.83705 8.54946 10.0587 8.23995C10.2163 8.01789 10.4153 7.99038 10.6242 8.06898C10.8369 8.14268 11.9629 8.69783 12.1944 8.8128C12.4259 8.92874 12.5786 8.98377 12.6348 9.08104C12.6899 9.17832 12.6899 9.63522 12.4998 10.1717Z" fill="white"/>
</g>
<defs>
<clipPath id="clip0">
<rect width="16" height="16" fill="white"/>
</clipPath>
</defs>
</svg>
