<svg width="17" height="16" viewBox="0 0 17 16" fill="none" xmlns="http://www.w3.org/2000/svg">
<g clip-path="url(#clip0)">
<path d="M8.66854 0.533203H8.66481C4.54788 0.533203 1.20001 3.882 1.20001 7.99987C1.20001 9.6332 1.72641 11.1471 2.62148 12.3763L1.69095 15.1501L4.56095 14.2327C5.74161 15.0148 7.15001 15.4665 8.66854 15.4665C12.7855 15.4665 16.1333 12.1168 16.1333 7.99987C16.1333 3.88294 12.7855 0.533203 8.66854 0.533203Z" fill="#25D366"/>
<path d="M13.3237 11.2969C13.1307 11.8419 12.3647 12.2939 11.7537 12.4259C11.3357 12.5149 10.7897 12.5859 8.95168 11.8239C6.60068 10.8499 5.08668 8.46093 4.96868 8.30593C4.85568 8.15093 4.01868 7.04093 4.01868 5.89293C4.01868 4.74493 4.60168 4.18594 4.83668 3.94594C5.02968 3.74894 5.34868 3.65894 5.65468 3.65894C5.75368 3.65894 5.84268 3.66394 5.92268 3.66794C6.15768 3.67794 6.27568 3.69194 6.43068 4.06294C6.62368 4.52793 7.09368 5.67593 7.14968 5.79393C7.20668 5.91193 7.26368 6.07193 7.18368 6.22693C7.10868 6.38693 7.04268 6.45793 6.92468 6.59393C6.80668 6.72993 6.69468 6.83393 6.57668 6.97993C6.46868 7.10693 6.34668 7.24293 6.48268 7.47793C6.61868 7.70793 7.08868 8.47493 7.78068 9.09093C8.67368 9.88593 9.39768 10.1399 9.65668 10.2479C9.84968 10.3279 10.0797 10.3089 10.2207 10.1589C10.3997 9.96593 10.6207 9.64593 10.8457 9.33093C11.0057 9.10493 11.2077 9.07693 11.4197 9.15693C11.6357 9.23193 12.7787 9.79693 13.0137 9.91393C13.2487 10.0319 13.4037 10.0879 13.4607 10.1869C13.5167 10.2859 13.5167 10.7509 13.3237 11.2969Z" fill="white"/>
</g>
<defs>
<clipPath id="clip0">
<rect width="16" height="16" fill="white" transform="translate(0.666687)"/>
</clipPath>
</defs>
</svg>
